<svg width="174" height="35" viewBox="0 0 174 35" fill="none" xmlns="http://www.w3.org/2000/svg">
<path fill-rule="evenodd" clip-rule="evenodd" d="M53.3176 0H5.4572C2.4284 0 -0.0237522 2.47595 0.000173607 5.48071V23.75C0.000173607 26.7788 2.45232 29.2307 5.48113 29.2307H28.1496L38.5099 35L36.154 29.2307H53.3176C56.3464 29.2307 58.7985 26.7788 58.7985 23.75V5.48071C58.7985 2.4519 56.3464 0 53.3176 0ZM4.44695 4.23083C3.7741 4.27881 3.26922 4.51929 2.93279 4.97595C2.59636 5.40869 2.47625 5.96155 2.54803 6.58655C3.96648 15.601 5.28875 21.6827 6.51433 24.8318C6.99529 25.9856 7.54803 26.5385 8.19695 26.4904C9.20672 26.4183 10.4089 25.024 11.8268 22.3077C12.572 20.7693 13.7262 18.4615 15.2887 15.3846C16.5866 19.9279 18.3654 23.3413 20.6012 25.625C21.2262 26.274 21.8752 26.5625 22.5002 26.5144C23.0529 26.4664 23.4855 26.1779 23.7741 25.649C24.0143 25.1924 24.1105 24.6635 24.0627 24.0625C23.9181 21.875 24.1345 18.8221 24.7355 14.9039C25.3605 10.8654 26.1301 7.95679 27.0676 6.22595C27.2595 5.86536 27.3317 5.50488 27.3078 5.07214C27.2595 4.51929 27.0192 4.0625 26.5627 3.7019C26.1056 3.34143 25.6012 3.1731 25.048 3.22119C24.3512 3.26929 23.822 3.60583 23.4616 4.27893C21.9714 6.99524 20.9137 11.3943 20.2887 17.5C19.3752 15.1924 18.6056 12.476 18.0051 9.27881C17.7404 7.8606 17.0915 7.1875 16.0339 7.25964C15.3127 7.30774 14.7116 7.78845 14.2306 8.7019L8.96648 18.726C8.10125 15.2404 7.28386 10.9856 6.53875 5.96155C6.37029 4.71155 5.67303 4.13464 4.44695 4.23083ZM54.6164 8.75C53.7507 7.23547 52.4767 6.32202 50.7702 5.96155C50.3132 5.86536 49.8805 5.81726 49.4719 5.81726C47.1642 5.81726 45.2892 7.01917 43.8229 9.42297C42.5729 11.4663 41.9479 13.726 41.9479 16.2019C41.9479 18.0529 42.3327 19.6394 43.1017 20.9615C43.967 22.476 45.2414 23.3894 46.9479 23.75C47.4045 23.8461 47.8376 23.8942 48.2458 23.8942C50.5778 23.8942 52.4528 22.6923 53.8952 20.2885C55.1452 18.2211 55.7702 15.9615 55.7702 13.4855C55.7702 11.6105 55.3854 10.048 54.6164 8.75ZM51.5876 15.4086C51.2507 16.9951 50.6501 18.1731 49.7604 18.9663C49.0632 19.5913 48.4142 19.8557 47.8132 19.7355C47.2365 19.6154 46.7555 19.1105 46.3952 18.173C46.1066 17.4279 45.9626 16.6826 45.9626 15.9856C45.9626 15.3845 46.0104 14.7836 46.1305 14.2307C46.3469 13.2451 46.7555 12.2836 47.4045 11.3701C48.1979 10.1923 49.0392 9.71155 49.9045 9.87976C50.4816 10 50.9626 10.5048 51.3229 11.4423C51.6115 12.1875 51.7555 12.9326 51.7555 13.6298C51.7555 14.2548 51.6833 14.8557 51.5876 15.4086ZM35.6974 5.96155C37.3801 6.32202 38.6779 7.23547 39.5436 8.75C40.3127 10.048 40.6974 11.6105 40.6974 13.4855C40.6974 15.9615 40.0724 18.2211 38.8224 20.2885C37.3801 22.6923 35.5051 23.8942 33.173 23.8942C32.7648 23.8942 32.3317 23.8461 31.8752 23.75C30.1686 23.3894 28.8942 22.476 28.029 20.9615C27.2599 19.6394 26.8752 18.0529 26.8752 16.2019C26.8752 13.726 27.5002 11.4663 28.7502 9.42297C30.2165 7.01917 32.0915 5.81726 34.3991 5.81726C34.8078 5.81726 35.2404 5.86536 35.6974 5.96155ZM34.6877 18.9663C35.5773 18.1731 36.1779 16.9951 36.5148 15.4086C36.6349 14.8557 36.6828 14.2548 36.6828 13.6298C36.6828 12.9326 36.5387 12.1875 36.2502 11.4423C35.8898 10.5048 35.4089 10 34.8317 9.87976C33.9665 9.71155 33.1252 10.1923 32.3317 11.3701C31.6828 12.2836 31.2741 13.2451 31.0578 14.2307C30.9377 14.7836 30.8898 15.3845 30.8898 15.9856C30.8898 16.6826 31.0339 17.4279 31.3224 18.173C31.6828 19.1105 32.1637 19.6154 32.7404 19.7355C33.3415 19.8557 33.9904 19.5913 34.6877 18.9663Z" fill="#9BA6B2"/>
<path d="M2.40385 2.37981C0.793269 3.96635 0 5.98558 0 8.4375C0 11.0577 0.793268 13.1971 2.37981 14.8077C3.96635 16.4183 6.03366 17.2356 8.60577 17.2356C9.35097 17.2356 10.1923 17.1154 11.1058 16.851V12.9567C10.2644 13.1971 9.54327 13.3173 8.91827 13.3173C7.64423 13.3173 6.63461 12.8846 5.86538 12.0433C5.09615 11.1779 4.71154 10.024 4.71154 8.5577C4.71154 7.1875 5.09616 6.0577 5.84135 5.19231C6.61058 4.30289 7.54808 3.87019 8.70193 3.87019C9.44712 3.87019 10.2404 3.99039 11.1058 4.23077V0.336544C10.3125 0.120198 9.42308 0.0240399 8.48558 0.0240399C6.03366 1.46683e-06 4.01442 0.793275 2.40385 2.37981ZM19.0865 0C16.875 0 15.1442 0.745195 13.8942 2.21154C12.6442 3.67789 12.0433 5.7452 12.0433 8.38943C12.0433 11.25 12.6683 13.4375 13.8942 14.9519C15.1202 16.4664 16.9231 17.2356 19.2789 17.2356C21.5625 17.2356 23.3173 16.4664 24.5433 14.9519C25.7692 13.4375 26.3942 11.2981 26.3942 8.5577C26.3942 5.81731 25.7692 3.70193 24.5192 2.21154C23.2452 0.745195 21.4423 0 19.0865 0ZM20.9856 12.5C20.5529 13.1731 19.9038 13.5096 19.0865 13.5096C18.3173 13.5096 17.7404 13.1731 17.3317 12.5C16.9231 11.8269 16.7308 10.4808 16.7308 8.4375C16.7308 5.28846 17.524 3.72596 19.1346 3.72596C20.8173 3.72596 21.6827 5.31251 21.6827 8.50962C21.6587 10.4808 21.4183 11.8269 20.9856 12.5ZM38.2692 0.456737L37.4039 4.13462C37.1875 5.07212 36.9712 6.03366 36.7789 7.01924L36.2981 9.56731C35.8414 7.01924 35.2163 3.99039 34.4231 0.456737H28.8462L26.7548 16.8269H30.9375L32.0673 5.55289L34.9279 16.8269H37.9087L40.649 5.57693L41.8269 16.8269H46.2019L43.9904 0.456737H38.2692ZM58.2933 0.456737L57.4279 4.13462C57.2115 5.07212 56.9952 6.03366 56.8029 7.01924L56.3221 9.56731C55.8654 7.01924 55.2404 3.99039 54.4471 0.456737H48.8702L46.7789 16.8269H50.9616L52.0913 5.55289L54.9519 16.8269H57.9327L60.649 5.57693L61.8269 16.8269H66.2019L63.9904 0.456737H58.2933ZM71.899 10.3606H75.8173V6.97116H71.899V3.96635H76.4183V0.480769H67.476V16.851H76.4423V13.3654H71.899V10.3606ZM88.8942 7.76443C89.351 7.01924 89.5913 6.25 89.5913 5.45674C89.5913 3.91827 88.9904 2.69231 87.7885 1.80289C86.5865 0.913462 84.9279 0.456737 82.8606 0.456737H77.7164V16.8269H82.1394V9.375H82.2116L85.7933 16.8269H90.4567L86.9231 9.44712C87.7644 9.06251 88.4375 8.50962 88.8942 7.76443ZM82.1154 7.5V3.60577C83.1731 3.62981 83.9183 3.79808 84.375 4.13462C84.8317 4.47116 85.0481 5 85.0481 5.76923C85.0481 6.89904 84.0625 7.47597 82.1154 7.5ZM92.1875 2.37981C90.5769 3.96635 89.7837 5.98558 89.7837 8.4375C89.7837 11.0577 90.5769 13.1971 92.1635 14.8077C93.75 16.4183 95.8173 17.2356 98.3894 17.2356C99.1346 17.2356 99.976 17.1154 100.889 16.851V12.9567C100.048 13.1971 99.3269 13.3173 98.7019 13.3173C97.4279 13.3173 96.4183 12.8846 95.649 12.0433C94.8798 11.1779 94.4952 10.024 94.4952 8.5577C94.4952 7.1875 94.8798 6.0577 95.625 5.19231C96.3942 4.30289 97.3317 3.87019 98.4856 3.87019C99.2308 3.87019 100.024 3.99039 100.889 4.23077V0.336544C100.096 0.120198 99.2067 0.0240399 98.2692 0.0240399C95.8414 1.46683e-06 93.7981 0.793275 92.1875 2.37981ZM106.538 13.3173V10.3365H110.457V6.94712H106.538V3.94231H111.082V0.456737H102.139V16.8269H111.106V13.3413H106.538V13.3173Z" transform="translate(62.4766 6.15381)" fill="#9BA6B2"/>
</svg>
