<?xml version="1.0" standalone="no"?>
<!DOCTYPE svg PUBLIC "-//W3C//DTD SVG 20010904//EN"
 "http://www.w3.org/TR/2001/REC-SVG-20010904/DTD/svg10.dtd">
<svg version="1.0" xmlns="http://www.w3.org/2000/svg"
 width="500.000000pt" height="500.000000pt" viewBox="0 0 500.000000 500.000000"
 preserveAspectRatio="xMidYMid meet">

<g transform="translate(0.000000,500.000000) scale(0.100000,-0.100000)"
fill="#000000" stroke="none">
<path d="M1873 4936 c-131 -32 -228 -106 -325 -249 -70 -101 -131 -155 -233
-204 -60 -28 -89 -35 -185 -44 -63 -5 -140 -17 -170 -25 -216 -61 -370 -272
-370 -509 0 -63 -22 -150 -54 -213 -42 -83 -100 -146 -193 -210 -108 -73 -172
-142 -212 -226 -38 -80 -50 -133 -51 -226 0 -94 19 -168 68 -267 53 -106 66
-165 60 -282 -5 -92 -8 -104 -63 -227 -55 -124 -58 -133 -63 -231 -4 -84 -1
-113 16 -170 38 -123 106 -210 231 -295 100 -68 166 -139 206 -223 34 -69 41
-104 65 -295 30 -253 251 -449 506 -450 180 0 330 -87 444 -254 67 -99 145
-170 236 -213 70 -33 86 -37 183 -41 116 -5 139 1 336 83 75 32 105 39 182 43
112 6 152 -4 302 -70 107 -48 122 -52 212 -56 81 -4 109 -1 170 18 137 41 220
106 312 246 56 84 94 122 172 169 79 47 138 64 267 75 250 23 407 137 485 354
8 23 21 98 29 168 25 222 87 329 257 441 104 68 160 129 203 220 77 163 72
313 -17 488 -89 179 -87 334 7 521 83 165 85 312 8 475 -40 85 -100 150 -204
220 -169 115 -240 238 -255 443 -11 157 -58 269 -151 363 -91 92 -206 142
-349 152 -117 9 -207 32 -272 72 -79 47 -113 81 -194 196 -96 134 -188 200
-321 232 -130 30 -225 17 -379 -55 -195 -91 -316 -90 -509 0 -148 70 -261 86
-387 56z m250 -326 c41 -6 94 -23 135 -44 168 -84 282 -87 456 -12 58 25 128
51 157 57 65 14 162 5 234 -22 64 -24 160 -94 193 -141 113 -163 161 -207 273
-249 29 -11 97 -24 153 -29 155 -14 234 -48 322 -142 28 -29 63 -78 78 -110
26 -53 33 -84 55 -257 10 -80 50 -171 100 -232 16 -20 61 -57 100 -83 142 -96
217 -205 231 -335 11 -103 -2 -175 -55 -296 -75 -173 -74 -274 7 -449 46 -100
59 -178 46 -282 -15 -132 -82 -231 -214 -320 -147 -99 -208 -204 -224 -388
-13 -146 -41 -213 -125 -305 -77 -84 -172 -127 -312 -141 -54 -6 -121 -17
-149 -25 -81 -23 -170 -89 -223 -164 -114 -162 -216 -234 -357 -251 -94 -12
-166 2 -286 54 -174 76 -278 74 -452 -6 -143 -66 -284 -69 -409 -9 -74 35
-122 80 -201 187 -106 143 -197 195 -377 213 -124 12 -199 37 -270 91 -108 81
-165 191 -180 350 -19 204 -67 286 -236 402 -123 85 -192 196 -208 334 -9 84
7 157 62 282 47 106 47 108 48 212 0 92 -4 112 -28 168 -83 190 -80 181 -80
282 0 167 64 279 221 389 149 104 205 200 221 384 14 148 48 230 132 314 84
85 167 120 315 133 178 16 292 79 380 211 103 155 217 226 384 238 8 0 45 -4
83 -9z"/>
<path d="M2569 2917 c-106 -30 -204 -117 -234 -208 -56 -166 29 -334 202 -399
48 -18 72 -21 139 -17 73 4 174 34 174 52 0 5 -49 106 -55 113 -1 1 -18 -5
-38 -13 -45 -19 -137 -19 -180 -1 -93 40 -134 154 -87 246 44 86 148 120 254
84 26 -9 49 -15 50 -13 2 2 15 27 29 56 30 58 28 63 -42 88 -62 21 -158 27
-212 12z"/>
<path d="M810 2611 l0 -311 70 0 70 0 0 115 0 115 64 0 c148 0 225 69 226 200
0 76 -30 126 -95 159 -45 23 -63 26 -192 30 l-143 3 0 -311z m243 178 c30 -16
37 -28 37 -70 0 -48 -27 -71 -90 -77 l-50 -5 0 82 0 81 41 0 c22 0 50 -5 62
-11z"/>
<path d="M3352 2904 c-49 -34 -48 -97 2 -130 75 -48 155 58 91 121 -28 29 -61
32 -93 9z"/>
<path d="M1338 2670 c-86 -46 -123 -170 -79 -265 49 -106 162 -146 259 -90 40
23 42 23 42 4 0 -17 7 -19 65 -19 l65 0 0 183 0 182 86 -153 85 -153 -65 -124
-65 -125 77 0 77 0 47 93 c26 50 92 179 148 285 l101 192 -76 0 -76 0 -45 -97
-45 -97 -52 97 -52 97 -137 0 c-116 0 -138 -2 -138 -15 0 -12 -6 -12 -37 5
-49 26 -135 26 -185 0z m194 -120 c26 -27 30 -36 25 -67 -8 -47 -33 -72 -80
-80 -31 -5 -40 -1 -67 25 -40 41 -41 83 -1 123 40 40 82 39 123 -1z"/>
<path d="M2951 2664 c-69 -35 -104 -86 -109 -162 -8 -115 73 -199 200 -209 80
-7 138 9 185 50 88 77 96 193 19 276 -70 75 -195 95 -295 45z m181 -114 c26
-27 30 -36 25 -67 -8 -47 -33 -72 -80 -80 -31 -5 -40 -1 -67 25 -40 41 -41 83
-1 123 40 40 82 39 123 -1z"/>
<path d="M3682 2670 c-39 -24 -42 -24 -42 -5 0 12 -14 15 -65 15 l-65 0 0
-190 0 -190 64 0 64 0 4 119 c3 110 5 121 27 145 30 32 73 34 101 6 18 -18 20
-33 20 -145 l0 -125 65 0 65 0 0 145 c0 111 -4 153 -15 175 -33 64 -155 91
-223 50z"/>
<path d="M4035 2674 c-44 -22 -65 -54 -65 -99 0 -56 22 -83 97 -117 47 -21 63
-33 61 -46 -5 -26 -62 -27 -103 -3 l-34 20 -24 -42 c-14 -23 -23 -46 -20 -51
14 -21 92 -46 148 -46 134 0 209 85 161 179 -18 34 -49 55 -104 72 -49 14 -71
34 -54 51 11 11 74 7 104 -6 13 -6 21 2 37 33 12 22 21 42 21 45 0 2 -14 9
-31 15 -47 16 -159 14 -194 -5z"/>
<path d="M3320 2490 l0 -190 70 0 70 0 0 190 0 190 -70 0 -70 0 0 -190z"/>
</g>
</svg>
