<svg width="141" height="40" viewBox="0 0 141 40" fill="none" xmlns="http://www.w3.org/2000/svg">
<path d="M8.62745 6.99608C7.43529 6.33725 6.80784 5.80392 6.80784 5.05098C6.80784 4.07843 7.6549 3.48235 9.00392 3.48235C10.5725 3.48235 11.9529 4.14118 11.9529 4.14118L13.051 0.784313C13.051 0.784313 12.0471 0 9.06666 0C4.92549 0 2.03922 2.38431 2.03922 5.7098C2.03922 7.59216 3.38823 9.03529 5.17647 10.0706C6.61961 10.8863 7.12157 11.4823 7.12157 12.3294C7.12157 13.2392 6.4 13.9608 5.05098 13.9608C3.04313 13.9608 1.16078 12.9255 1.16078 12.9255L0 16.2823C0 16.2823 1.75686 17.4431 4.67451 17.4431C8.94117 17.4431 11.9843 15.3412 11.9843 11.5765C12.0471 9.50588 10.4784 8.06274 8.62745 6.99608Z" transform="translate(39.7803 15.2471)" fill="#9BA6B2"/>
<path d="M12.6118 7.05882C10.5098 7.05882 8.87843 8.06274 7.59215 9.56863L7.52941 9.53725L9.34902 0H4.61176L0 24.251H4.73725L6.30588 15.9686C6.93333 12.8314 8.53333 10.9176 10.0392 10.9176C11.1059 10.9176 11.5137 11.6392 11.5137 12.6745C11.5137 13.3333 11.451 14.1176 11.2941 14.7765L9.50588 24.2823H14.2431L16.0941 14.4941C16.3137 13.4588 16.4392 12.2353 16.4392 11.3882C16.4706 8.65882 15.0588 7.05882 12.6118 7.05882Z" transform="translate(52.7993 8.12549)" fill="#9BA6B2"/>
<path d="M9.50589 0C3.79608 0 0 5.1451 0 10.8863C0 14.5569 2.25883 17.5373 6.52549 17.5373C12.1412 17.5373 15.9059 12.5177 15.9059 6.65098C15.9373 3.23137 13.9608 0 9.50589 0ZM7.18432 13.8667C5.55295 13.8667 4.89412 12.4863 4.89412 10.7608C4.89412 8.03137 6.30589 3.60784 8.87844 3.60784C10.5726 3.60784 11.1059 5.05098 11.1059 6.46275C11.1059 9.41177 9.69412 13.8667 7.18432 13.8667Z" transform="translate(70.4932 15.1843)" fill="#9BA6B2"/>
<path d="M13.2706 0C10.0706 0 8.25099 2.82353 8.25099 2.82353H8.18824L8.47059 0.282352H4.26667C4.04706 2.00784 3.67059 4.61176 3.29412 6.58823L0 23.9686H4.73726L6.05491 16.9412H6.14902C6.14902 16.9412 7.12157 17.5686 8.94118 17.5686C14.5255 17.5686 18.1647 11.8588 18.1647 6.08627C18.1647 2.8549 16.753 0 13.2706 0ZM8.75294 13.9608C7.52941 13.9608 6.80785 13.2706 6.80785 13.2706L7.59216 8.84706C8.15687 5.89804 9.69412 3.92157 11.3255 3.92157C12.7686 3.92157 13.2079 5.27059 13.2079 6.52549C13.2079 9.56862 11.3882 13.9608 8.75294 13.9608Z" transform="translate(85.3018 15.1843)" fill="#9BA6B2"/>
<path d="M2.72941 0C1.22352 0 0 1.19216 0 2.76079C0 4.17255 0.878424 5.1451 2.22744 5.1451H2.29019C3.7647 5.1451 5.05098 4.14118 5.08235 2.38431C5.11372 1.00392 4.17254 0 2.72941 0Z" transform="translate(107.515 8.34509)" fill="#9BA6B2"/>
<path d="M0 16.8157H4.76862L8 0H3.2L0 16.8157Z" transform="translate(103.592 15.5608)" fill="#9BA6B2"/>
<path d="M11.1686 7.71765H7.87451L8.03137 6.93333C8.31373 5.30196 9.2549 3.85882 10.8549 3.85882C11.702 3.85882 12.3608 4.1098 12.3608 4.1098L13.302 0.407843C13.302 0.407843 12.4863 0 10.7294 0C9.0353 0 7.37255 0.470588 6.08627 1.56863C4.4549 2.94902 3.70196 4.92549 3.32549 6.93333L3.2 7.71765H1.00393L0.313726 11.2941H2.5098L0 24.5647H4.73726L7.24706 11.2941H10.5098L11.1686 7.71765Z" transform="translate(112.471 7.7804)" fill="#9BA6B2"/>
<path d="M12.9882 0C12.9882 0 10.0078 7.46667 8.69019 11.5451H8.62745C8.53333 10.2274 7.46666 0 7.46666 0H2.47843L5.33333 15.4353C5.39608 15.7804 5.3647 16 5.23921 16.2196C4.6745 17.2863 3.76471 18.3216 2.66667 19.0745C1.78824 19.7333 0.784314 20.1412 0 20.4235L1.31764 24.4392C2.29019 24.2196 4.26667 23.4353 5.96078 21.8667C8.12549 19.8274 10.1333 16.7216 12.1725 12.4549L17.9765 0H12.9882Z" transform="translate(122.071 15.5608)" fill="#9BA6B2"/>
<path d="M0 34.3216L11.7333 31.7804C11.7333 31.7804 7.49804 3.13725 7.46667 2.94902C7.4353 2.76078 7.27843 2.63529 7.12157 2.63529C6.96471 2.63529 3.98431 2.41569 3.98431 2.41569C3.98431 2.41569 1.91373 0.345098 1.66275 0.12549C1.6 0.0627453 1.53725 0.0313725 1.47451 0L0 34.3216Z" transform="translate(22.5884 4.67456)" fill="#9BA6B2"/>
<path d="M23.5608 4.61177C23.5294 4.61177 23.4667 4.64314 23.4353 4.64314C23.4039 4.64314 22.9647 4.76863 22.2745 4.98824C21.5843 2.98039 20.3608 1.12941 18.1961 1.12941C18.1333 1.12941 18.0706 1.12941 18.0078 1.12941C17.3804 0.345098 16.6274 0 15.9686 0C10.9176 0 8.50196 6.30588 7.74902 9.50589C5.80392 10.102 4.39216 10.5412 4.23529 10.6039C3.13725 10.949 3.10588 10.9804 2.98039 12.0157C2.8549 12.7686 0 34.8863 0 34.8863L22.0549 39.0275L23.5608 4.61177ZM17.8196 6.14902C17.8196 6.21177 17.8196 6.30588 17.8196 6.36863C16.5961 6.7451 15.2471 7.15294 13.9294 7.56079C14.6824 4.67451 16.0941 3.26275 17.3176 2.72941C17.6314 3.5451 17.8196 4.64314 17.8196 6.14902ZM15.8118 1.34902C16.0314 1.34902 16.251 1.41177 16.4706 1.56863C14.8706 2.32157 13.1137 4.2353 12.3922 8.06275C11.3255 8.40785 10.2902 8.72157 9.31765 9.00392C10.1647 6.08628 12.2039 1.34902 15.8118 1.34902ZM16.6902 18.3843C16.6902 18.3843 15.3725 17.6941 13.8039 17.6941C11.451 17.6941 11.3569 19.1686 11.3569 19.5451C11.3569 21.5529 16.6274 22.3373 16.6274 27.0745C16.6274 30.8079 14.2745 33.1922 11.0745 33.1922C7.24706 33.1922 5.30196 30.8078 5.30196 30.8078L6.33725 27.4196C6.33725 27.4196 8.3451 29.1451 10.0392 29.1451C11.1373 29.1451 11.6078 28.2667 11.6078 27.6392C11.6078 25.0039 7.27843 24.8784 7.27843 20.549C7.27843 16.9098 9.88235 13.3647 15.1843 13.3647C17.2235 13.3647 18.2274 13.9608 18.2274 13.9608L16.6902 18.3843ZM18.698 2.5098C19.8274 2.63529 20.549 3.92157 21.0196 5.36471C20.4549 5.55294 19.8274 5.74118 19.1373 5.96079C19.1373 5.8353 19.1373 5.70981 19.1373 5.55294C19.1373 4.32941 18.9804 3.32549 18.698 2.5098Z" fill="#9BA6B2"/>
</svg>
