<svg width="453" height="219" viewBox="0 0 453 219" fill="none" xmlns="http://www.w3.org/2000/svg">
<path opacity="0.1" d="M226.5 5.6625C351.592 5.6625 453 4.39491 453 2.83125C453 1.26759 351.592 0 226.5 0C101.408 0 0 1.26759 0 2.83125C0 4.39491 101.408 5.6625 226.5 5.6625Z" transform="translate(0 213.051)" fill="#315CE8"/>
<path d="M0 0H13.4484V14.1562C13.4484 14.5317 13.2993 14.8918 13.0338 15.1572C12.7683 15.4227 12.4083 15.5719 12.0328 15.5719H1.41562C1.04018 15.5719 0.680107 15.4227 0.414626 15.1572C0.149145 14.8918 0 14.5317 0 14.1562V0Z" transform="translate(82.8154 105.464)" fill="#153363"/>
<path d="M10.1076 0H0L0.81398 0.990933C0.95173 1.14171 1.12047 1.26091 1.30863 1.34032C1.49678 1.41974 1.69989 1.45749 1.90402 1.45101H8.23894C8.44306 1.45749 8.64617 1.41974 8.83432 1.34032C9.02247 1.26091 9.19122 1.14171 9.32897 0.990933L10.1076 0Z" transform="translate(84.4844 121.036)" fill="#153363"/>
<path d="M0 10.3199V8.19648C0.805334 8.19648 1.57769 7.87655 2.14714 7.30709C2.7166 6.73764 3.03652 5.96529 3.03652 5.15996C3.03652 4.35462 2.7166 3.58228 2.14714 3.01283C1.57769 2.44337 0.805334 2.12344 0 2.12344V0C1.3685 0 2.68096 0.543637 3.64864 1.51132C4.61632 2.47899 5.15996 3.79145 5.15996 5.15996C5.15996 6.52846 4.61632 7.84092 3.64864 8.8086C2.68096 9.77628 1.3685 10.3199 0 10.3199Z" transform="translate(95.6753 108.089)" fill="#153363"/>
<path d="M3.33379 9.23695L5.88899 0L4.79897 0.134486C4.29358 0.194989 3.81386 0.390612 3.41028 0.700771C3.0067 1.01093 2.69419 1.42414 2.50565 1.89693L0 7.67975L3.33379 9.23695Z" transform="translate(86.7412 116.753)" fill="#95D1FE"/>
<path d="M10.344 16.1523L8.22052 9.78197H5.76441C4.91402 9.78197 4.09847 9.44415 3.49716 8.84284C2.89584 8.24152 2.55802 7.42597 2.55802 6.57558V0L1.09284 1.41563C0.706841 1.78906 0.476694 2.2949 0.448744 2.83125L0.00989291 9.90938C-0.0657002 11.1041 0.293855 12.2859 1.02207 13.2361L5.46006 18.9835L10.344 16.1523Z" transform="translate(80.2583 111.254)" fill="#95D1FE"/>
<path opacity="0.5" d="M10.344 15.0693L9.38841 12.1956C7.26497 13.1795 6.42975 14.135 5.75025 14.2412C4.91503 14.3757 4.41249 14.0642 2.55802 11.3179C0.703553 8.57162 1.44675 8.7061 1.58124 5.01132C1.68741 2.05267 1.3689 1.47225 1.43968 0L1.09284 0.339758C0.706841 0.713195 0.476694 1.21903 0.448744 1.75538L0.00989291 8.8335C-0.0657002 10.0283 0.293855 11.21 1.02207 12.1602L5.46006 17.9006L10.344 15.0693Z" transform="translate(80.2583 112.336)" fill="#56B4FC"/>
<path d="M261.891 0H8.49375C3.80278 0 0 3.80278 0 8.49375V181.2C0 185.891 3.80278 189.694 8.49375 189.694H261.891C266.582 189.694 270.384 185.891 270.384 181.2V8.49375C270.384 3.80278 266.582 0 261.891 0Z" transform="translate(158.549)" fill="#D4EEFF"/>
<path d="M60.8719 0H0V18.4031H60.8719V0Z" transform="translate(263.308 189.694)" fill="#95D1FE"/>
<path opacity="0.5" d="M0 2.12344C4.24687 1.11834 5.34398 0.771525 14.1562 2.95159C25.1486 5.66251 27.4065 2.79586 38.2219 2.49858C46.0998 2.27916 54.2892 4.14778 60.8365 4.51585V0H0V2.12344Z" transform="translate(263.308 189.694)" fill="#56B4FC"/>
<path d="M165.911 7.78594H6.795C5.63334 7.78452 4.5002 7.42584 3.5493 6.75856C2.5984 6.09129 1.87574 5.14771 1.47933 4.05577L0 0H172.706L171.227 4.05577C170.83 5.14771 170.108 6.09129 169.157 6.75856C168.206 7.42584 167.073 7.78452 165.911 7.78594Z" transform="translate(207.388 208.097)" fill="#D4EEFF"/>
<path d="M242.072 0H0V161.381H242.072V0Z" transform="translate(172.706 14.1562)" fill="#95D1FE"/>
<path d="M210.928 0H0V161.381H210.928V0Z" transform="translate(188.279 14.1562)" fill="white"/>
<path d="M26.1891 52.3781C40.6529 52.3781 52.3781 40.6529 52.3781 26.1891C52.3781 11.7252 40.6529 0 26.1891 0C11.7252 0 0 11.7252 0 26.1891C0 40.6529 11.7252 52.3781 26.1891 52.3781Z" transform="translate(267.308 47.4231)" fill="#FFD066"/>
<path opacity="0.3" d="M26.1891 2.12344C30.9488 2.12344 35.6017 3.53486 39.5592 6.17922C43.5168 8.82359 46.6014 12.5821 48.4228 16.9796C50.2443 21.377 50.7209 26.2158 49.7923 30.884C48.8637 35.5523 46.5717 39.8404 43.2061 43.206C39.8404 46.5717 35.5523 48.8637 30.884 49.7923C26.2158 50.7209 21.377 50.2443 16.9796 48.4228C12.5822 46.6013 8.82361 43.5168 6.17925 39.5592C3.53488 35.6016 2.12345 30.9488 2.12345 26.1891C2.12345 19.8065 4.65893 13.6853 9.17212 9.1721C13.6853 4.65892 19.8065 2.12344 26.1891 2.12344ZM26.1891 0C21.0094 0 15.946 1.53596 11.6392 4.41366C7.33245 7.29135 3.97573 11.3815 1.99355 16.1669C0.0113562 20.9524 -0.507287 26.2181 0.503224 31.2983C1.51374 36.3785 4.008 41.0449 7.67061 44.7076C11.3332 48.3702 15.9997 50.8644 21.0798 51.8749C26.16 52.8854 31.4258 52.3668 36.2112 50.3846C40.9966 48.4024 45.0868 45.0457 47.9645 40.7389C50.8422 36.4322 52.3782 31.3688 52.3782 26.1891C52.3782 19.2433 49.619 12.582 44.7076 7.6706C39.7962 2.7592 33.1349 0 26.1891 0Z" transform="translate(267.308 47.4231)" fill="white"/>
<path opacity="0.5" d="M20.5266 41.0531C16.4668 41.0531 12.4982 39.8493 9.12263 37.5938C5.74705 35.3383 3.11611 32.1325 1.5625 28.3817C0.00889477 24.631 -0.397601 20.5038 0.394421 16.522C1.18644 12.5403 3.14141 8.88279 6.0121 6.0121C8.88279 3.14141 12.5403 1.18644 16.522 0.394421C20.5038 -0.397601 24.631 0.00889477 28.3817 1.5625C32.1325 3.11611 35.3383 5.74705 37.5938 9.12263C39.8493 12.4982 41.0531 16.4668 41.0531 20.5266C41.0531 25.9706 38.8905 31.1916 35.0411 35.0411C31.1916 38.8905 25.9706 41.0531 20.5266 41.0531ZM20.5266 1.41564C16.7468 1.41564 13.0519 2.53648 9.90911 4.63641C6.76633 6.73635 4.31684 9.72107 2.87038 13.2131C1.42392 16.7052 1.04545 20.5478 1.78285 24.2549C2.52025 27.9621 4.34039 31.3673 7.0131 34.0401C9.68581 36.7128 13.0911 38.5329 16.7982 39.2703C20.5054 40.0077 24.348 39.6292 27.84 38.1828C31.3321 36.7363 34.3168 34.2868 36.4167 31.144C38.5167 28.0013 39.6375 24.3064 39.6375 20.5266C39.6375 15.458 37.6241 10.5971 34.0401 7.0131C30.4561 3.4291 25.5951 1.41564 20.5266 1.41564Z" transform="translate(272.969 53.0859)" fill="#F99E35"/>
<path opacity="0.5" d="M10.6172 0L8.2531 7.66561C8.21031 7.80313 8.13434 7.92801 8.03188 8.02923C7.92943 8.13045 7.80363 8.2049 7.6656 8.24602L0 10.6172L7.6656 12.9813C7.80363 13.0224 7.92943 13.0969 8.03188 13.1981C8.13434 13.2993 8.21031 13.4242 8.2531 13.5617L10.6172 21.2344L12.9813 13.5405C13.0241 13.4029 13.1 13.2781 13.2025 13.1768C13.3049 13.0756 13.4307 13.0012 13.5688 12.96L21.2344 10.596L13.5688 8.22479C13.4307 8.18367 13.3049 8.10921 13.2025 8.00799C13.1 7.90677 13.0241 7.7819 12.9813 7.64438L10.6172 0Z" transform="translate(250.522 36.7148)" fill="#FFD066"/>
<path d="M7.07812 2.83125H4.24687V0H2.83125V2.83125H0V4.24687H2.83125V7.07812H4.24687V4.24687H7.07812V2.83125Z" transform="translate(247.026 33.9753)" fill="#D4EEFF"/>
<path d="M0.707813 1.41563C1.09873 1.41563 1.41563 1.09873 1.41563 0.707813C1.41563 0.316898 1.09873 0 0.707813 0C0.316898 0 0 0.316898 0 0.707813C0 1.09873 0.316898 1.41563 0.707813 1.41563Z" transform="translate(268.969 38.222)" fill="#95D1FE"/>
<path d="M0.707813 1.41563C1.09873 1.41563 1.41563 1.09873 1.41563 0.707813C1.41563 0.316898 1.09873 0 0.707813 0C0.316898 0 0 0.316898 0 0.707813C0 1.09873 0.316898 1.41563 0.707813 1.41563Z" transform="translate(252.69 56.625)" fill="#95D1FE"/>
<path d="M118.913 0H0V8.49375H118.913V0Z" transform="translate(210.927 117.497)" fill="#D4EEFF"/>
<path d="M118.913 0H0V8.49375H118.913V0Z" transform="translate(210.927 133.069)" fill="#D4EEFF"/>
<path d="M87.7688 0H0V8.49375H87.7688V0Z" transform="translate(210.927 148.641)" fill="#D4EEFF"/>
<path d="M35.3906 0H0V16.9875H35.3906V0Z" transform="translate(341.167 117.497)" fill="#56B4FC"/>
<path d="M4.24687 14.1562C6.59236 14.1562 8.49375 10.9873 8.49375 7.07812C8.49375 3.16898 6.59236 0 4.24687 0C1.90139 0 0 3.16898 0 7.07812C0 10.9873 1.90139 14.1562 4.24687 14.1562Z" transform="translate(140.163 102.143) rotate(-2.88)" fill="#95D1FE"/>
<path opacity="0.5" d="M8.33803 6.85503C8.13984 2.95499 6.08719 -0.11691 3.74433 0.00341774C1.9111 0.0883552 0.460078 2.12686 0 4.8307C1.30571 4.90551 2.6157 4.83906 3.90714 4.63252C6.66053 4.32816 5.97394 6.36666 6.97196 7.97339C7.81425 9.33239 7.45328 10.5427 6.87287 12.6591C7.99806 10.9434 8.51405 8.89926 8.33803 6.85503Z" transform="translate(140.646 101.943)" fill="#56B4FC"/>
<path d="M68.2614 0C68.2614 0 76.3093 13.1299 76.3093 35.1217C76.3093 48.6904 70.8379 69.1321 62.153 82.7858H43.0421L33.7697 60.4472C39.5537 50.555 44.0719 39.9753 47.2182 28.9566C36.7638 39.3756 28.8858 49.2496 22.289 49.2496C15.6922 49.2496 0 10.0863 0 10.0863L9.56254 5.45723L23.9311 30.5563C23.9311 30.5563 55.2589 0 62.153 0H68.2614Z" transform="translate(82.2407 119.684)" fill="#56B4FC"/>
<g opacity="0.3">
<path opacity="0.3" d="M27.2437 7.0923C22.4265 10.2968 17.1852 12.8127 11.6718 14.5668C8.1602 15.7956 4.55194 16.7285 0.884765 17.3556C0.537937 17.9785 0.240656 18.5093 0 18.9198C4.13228 18.3029 8.19677 17.2956 12.139 15.9116C17.7646 14.1223 23.113 11.5565 28.0294 8.2885C32.217 5.49798 36.7342 3.23699 41.4778 1.5572C41.5344 1.03342 41.584 0.516703 41.6264 0C36.5469 1.73507 31.7126 4.1189 27.2437 7.0923Z" transform="translate(116.683 160.093)" fill="#315CE8"/>
<path opacity="0.3" d="M28.5885 6.45525C23.7681 9.6541 18.5276 12.1695 13.0167 13.9297C8.79966 15.4207 4.43634 16.4599 0 17.03L0.559167 18.389C4.95874 17.7962 9.28523 16.7501 13.4697 15.2675C19.0948 13.48 24.4431 10.9166 29.3601 7.65145C33.0051 5.22152 36.9047 3.19697 40.9894 1.61381C41.0814 1.0688 41.1593 0.537938 41.2372 0C36.7867 1.658 32.5424 3.82408 28.5885 6.45525Z" transform="translate(116.582 164.431)" fill="#315CE8"/>
<path opacity="0.3" d="M28.3125 5.67665C23.4953 8.88118 18.254 11.397 12.7406 13.1512C8.61141 14.613 4.34169 15.6425 0 16.2231L0.566252 17.575C4.87067 16.9731 9.10353 15.9392 13.2007 14.4889C18.8285 12.7025 24.1793 10.139 29.0982 6.87286C32.1094 4.86339 35.2929 3.12481 38.6112 1.67751C38.7315 1.11834 38.8377 0.559172 38.9509 0C35.2285 1.54144 31.6654 3.44267 28.3125 5.67665Z" transform="translate(118.105 168.906)" fill="#315CE8"/>
<path opacity="0.3" d="M35.9993 0.382225C30.3715 2.16858 25.0207 4.73202 20.1019 7.99829C15.2847 11.2028 10.0434 13.7186 4.53001 15.4728C3.18516 15.9258 1.95356 16.308 0.792747 16.6407C0.523778 17.2282 0.261891 17.7873 0 18.3323C1.50764 17.9289 3.14978 17.4334 4.9547 16.8176C10.5831 15.0295 15.934 12.4636 20.8522 9.1945C25.669 5.9894 30.9104 3.47355 36.424 1.72L37.1743 1.47226L37.1319 0L35.9993 0.382225Z" transform="translate(121.333 151.798)" fill="#315CE8"/>
<path opacity="0.3" d="M28.0435 4.68571C23.2248 7.88584 17.9838 10.3991 12.4717 12.1531C8.42758 13.5836 4.24905 14.601 0 15.1896L0.559167 16.5416C4.77023 15.9319 8.91172 14.9125 12.9247 13.498C18.5536 11.7113 23.9047 9.14536 28.8221 5.87483C31.1283 4.36083 33.5252 2.98982 35.9993 1.76953C36.1551 1.18205 36.2966 0.587484 36.4382 0C33.5275 1.35133 30.7215 2.91757 28.0435 4.68571Z" transform="translate(119.62 173.599)" fill="#315CE8"/>
<path opacity="0.3" d="M23.6197 7.60898C18.8009 10.8107 13.56 13.3263 8.04781 15.0835C5.25903 16.0178 2.9091 16.6761 0.842288 17.1574C0.545007 17.7307 0.268969 18.2828 0 18.7924C2.87558 18.1704 5.71178 17.3786 8.49374 16.4213C14.1189 14.6337 19.4672 12.0703 24.3841 8.80519C29.0462 5.70361 34.1087 3.25095 39.4322 1.51473C39.4322 1.0051 39.4747 0.495469 39.4818 0C33.8659 1.78529 28.5269 4.34637 23.6197 7.60898Z" transform="translate(119.06 155.896)" fill="#315CE8"/>
<path opacity="0.3" d="M25.7573 2.27209C26.09 1.52181 26.4085 0.764438 26.727 0C22.0495 3.05021 16.9803 5.45266 11.6577 7.14183C7.87033 8.47396 3.96778 9.45256 0 10.0651L0.559178 11.41C4.48936 10.7796 8.35525 9.7989 12.1107 8.4796C16.8917 6.96426 21.4733 4.88017 25.7573 2.27209Z" transform="translate(124.16 189.708)" fill="#315CE8"/>
<path opacity="0.3" d="M32.616 0.67243C26.9876 2.46056 21.6367 5.02641 16.7185 8.29556C11.9013 11.5001 6.66004 14.0159 1.14665 15.7701L0.743205 15.8975C0.495471 16.492 0.247734 17.0654 0 17.6316C0.516703 17.4688 1.04756 17.2919 1.59258 17.1078C7.2204 15.3215 12.5712 12.758 17.49 9.49177C22.3072 6.28723 27.5485 3.77142 33.0619 2.01727C33.6989 1.79785 34.3077 1.60673 34.9022 1.41562L34.7961 0C34.0953 0.191109 33.3733 0.417618 32.616 0.67243Z" transform="translate(123.472 147.798)" fill="#315CE8"/>
<path opacity="0.3" d="M31.1721 2.69676C32.0356 1.80492 32.9204 0.906 33.8264 0C31.2553 1.19109 28.6179 2.23329 25.9272 3.12146C20.4733 5.06655 14.7748 6.24104 8.9963 6.61097C5.97267 6.81306 2.96669 7.22457 0 7.84255L0.707812 9.13786C3.48455 8.58929 6.29303 8.21576 9.11662 8.01951C15.008 7.65035 20.8188 6.45913 26.3802 4.48044C28.1709 3.85757 29.7494 3.27009 31.1721 2.69676Z" transform="translate(94.9312 149.348)" fill="#315CE8"/>
<path opacity="0.3" d="M27.7746 3.43998C22.9577 6.64508 17.7163 9.16093 12.2027 10.9145C8.24288 12.3093 4.15571 13.3121 0 13.9085L0.566252 15.2675C4.67457 14.6427 8.71507 13.6332 12.6345 12.2522C18.2629 10.4674 23.6139 7.90383 28.5319 4.63619C29.9475 3.74434 31.3632 2.84542 33.0336 1.9111C33.2318 1.27407 33.4229 0.637031 33.6069 0C31.3349 1.18205 29.537 2.32164 27.7746 3.43998Z" transform="translate(121.139 178.538)" fill="#315CE8"/>
<path opacity="0.3" d="M17.6316 0C14.0966 1.92063 10.3906 3.50824 6.56143 4.74233C4.06286 5.58463 1.91109 6.2075 0 6.66758H5.21657L7.01442 6.08719C10.2624 5.02283 13.4298 3.72654 16.492 2.20837C16.8813 1.4864 17.2565 0.750281 17.6316 0Z" transform="translate(130.498 195.802)" fill="#315CE8"/>
<path opacity="0.3" d="M8.32387 4.90514C13.3246 4.59021 18.2684 3.66799 23.0464 2.15882C23.7542 1.45101 24.462 0.743203 25.1698 0C19.7162 1.94571 14.0175 3.12023 8.23894 3.48951C5.47301 3.67734 2.72141 4.03665 0 4.56538C0.268969 5.00422 0.530856 5.43599 0.792746 5.8536C3.28359 5.39805 5.79785 5.08141 8.32387 4.90514Z" transform="translate(96.9717 156.164)" fill="#315CE8"/>
<path opacity="0.3" d="M27.4985 1.81906C22.6794 5.01847 17.4385 7.53173 11.9266 9.2865C8.05426 10.6515 4.06069 11.6445 0 12.2522L0.559167 13.5971C4.58221 12.9744 8.53917 11.9816 12.3796 10.6313C18.0022 8.84219 23.3463 6.2738 28.2559 3.00112L29.6715 2.12344C29.9263 1.41562 30.174 0.707812 30.4147 0C29.3813 0.622875 28.4328 1.21742 27.4985 1.81906Z" transform="translate(122.661 183.862)" fill="#315CE8"/>
<path opacity="0.3" d="M4.79189 1.73413C6.04393 1.31722 7.23427 0.73397 8.33095 0C7.38248 0.0990938 6.4694 0.176958 5.5634 0.247739C3.80803 0.403458 2.02434 0.552088 0 0.856447C0.524804 1.37726 1.15459 1.78024 1.84739 2.0385C2.88787 1.9111 3.86466 1.81907 4.79189 1.73413Z" transform="translate(102.09 166.804)" fill="#315CE8"/>
<path opacity="0.3" d="M7.33293 2.8808C9.945 2.6991 12.5446 2.36825 15.1189 1.88987C15.8267 1.30238 16.492 0.665344 17.1998 0C13.9111 0.759061 10.5664 1.25142 7.19845 1.47226C4.99007 1.66337 2.73923 1.85447 0 2.34994C0.318515 2.80294 0.637028 3.22762 0.948465 3.624C3.34087 3.22762 5.35106 3.03652 7.33293 2.8808Z" transform="translate(99.2065 161.884)" fill="#315CE8"/>
<path opacity="0.3" d="M1.74123 0C1.18914 0.240656 0.608719 0.488391 0 0.707813H1.28822C1.44394 0.502547 1.59259 0.254813 1.74123 0Z" transform="translate(143.104 201.727)" fill="#315CE8"/>
<path opacity="0.3" d="M42.8085 1.45811C37.182 3.24781 31.8316 5.81102 26.911 9.07416C22.0938 12.2787 16.8525 14.7945 11.3392 16.5487C8.23527 17.627 5.05862 18.4833 1.83324 19.1109L0 20.8238C4.00871 20.2023 7.95145 19.2119 11.778 17.8652C17.4063 16.077 22.7572 13.5111 27.6755 10.242C32.4959 7.04319 37.7364 4.52777 43.2473 2.76755C44.8965 2.21545 46.39 1.75538 47.7703 1.35192C47.6216 0.884768 47.473 0.438844 47.3314 0C45.9583 0.445922 44.4294 0.898941 42.8085 1.45811Z" transform="translate(107.046 128.525)" fill="#315CE8"/>
<path opacity="0.3" d="M29.3954 0.983869C23.7703 2.77143 18.422 5.3348 13.505 8.59991C9.50045 11.2673 5.19262 13.4485 0.67243 15.0976C0.453008 15.6922 0.2265 16.2726 0 16.8459C5.03848 15.1091 9.8321 12.7301 14.2624 9.76782C19.0796 6.56329 24.3209 4.04747 29.8343 2.29333C30.804 1.96773 31.71 1.67751 32.5806 1.41562C32.524 0.934312 32.4673 0.460078 32.4036 0C31.4693 0.304359 30.4642 0.601651 29.3954 0.983869Z" transform="translate(125.439 143.793)" fill="#315CE8"/>
<path opacity="0.3" d="M10.7729 1.66336C11.87 1.57135 12.9884 1.47225 14.1633 1.34484L13.3989 0C12.4575 0.0990937 11.5444 0.176964 10.6526 0.254824C7.06116 0.499532 3.49728 1.05127 0 1.90402L0.622878 3.20639C3.9578 2.4126 7.35275 1.89649 10.7729 1.66336Z" transform="translate(89.5376 144.613)" fill="#315CE8"/>
<path opacity="0.3" d="M28.0577 1.19621C22.4272 2.99172 17.076 5.56724 12.1602 8.84766C9.30279 10.7438 6.29382 12.4009 3.16393 13.8023L0 16.6336C4.55054 14.9658 8.88679 12.7632 12.9176 10.0722C17.7385 6.87412 22.9788 4.35875 28.4895 2.59768C30.0113 2.08806 31.4057 1.65627 32.6939 1.29529C32.4674 0.799819 32.255 0.375141 32.071 0C30.8465 0.290203 29.5087 0.707814 28.0577 1.19621Z" transform="translate(119.301 121.39)" fill="#315CE8"/>
<path opacity="0.3" d="M11.0065 0.134486L9.33604 0.771513C6.93656 1.91817 3.63108 4.22564 0 7.07812C4.40254 4.30898 9.14076 2.1135 14.0996 0.545008C14.68 0.34682 15.2321 0.169875 15.7771 0H11.9266C11.6157 0.00796962 11.3067 0.0531203 11.0065 0.134486Z" transform="translate(132.465 119.684)" fill="#315CE8"/>
<path opacity="0.3" d="M36.1833 1.38024C30.5549 3.16513 25.2039 5.72865 20.2859 8.99629C15.4687 12.2008 10.2274 14.7166 4.71402 16.4708C3.86465 16.7539 3.0719 17.0087 2.30039 17.2423L0 19.3657C1.55719 18.9481 3.25593 18.4385 5.16702 17.7944C10.7933 16.0099 16.1421 13.4463 21.0574 10.1783C25.8751 6.97462 31.1162 4.45886 36.6293 2.70385C38.2643 2.15176 39.7436 1.69875 41.1097 1.32361C40.9328 0.85645 40.7558 0.410531 40.5859 0C39.2128 0.375141 37.7476 0.835228 36.1833 1.38024Z" transform="translate(112.46 124.908)" fill="#315CE8"/>
<path opacity="0.3" d="M11.1764 1.57841C12.0257 1.50763 12.8751 1.43686 13.7528 1.34484L12.9884 0L11.0631 0.169868C7.33138 0.411189 3.62884 0.986819 0 1.88985L0.59456 3.19931C4.06849 2.35492 7.60895 1.81259 11.1764 1.57841Z" transform="translate(87.9165 140.996)" fill="#315CE8"/>
<path opacity="0.3" d="M10.2987 1.7483C11.6506 1.63505 13.0167 1.5218 14.5031 1.33069L13.7386 0C12.5 0.141563 11.3321 0.240664 10.1996 0.339758C6.76528 0.564292 3.3545 1.06371 0 1.83323C0.212344 2.27208 0.42469 2.70384 0.644112 3.1356C3.82212 2.42711 7.04976 1.96332 10.2987 1.7483Z" transform="translate(91.2549 148.224)" fill="#315CE8"/>
<path opacity="0.3" d="M23.4923 1.32361C17.8672 3.11117 12.5188 5.67456 7.6019 8.93968C5.32666 10.4398 2.96299 11.8012 0.523774 13.0167C0.353899 13.6254 0.176953 14.227 0 14.8287C2.90989 13.4731 5.71572 11.9046 8.39464 10.1359C13.2118 6.93135 18.4531 4.41553 23.9665 2.66138C25.3821 2.18007 26.7341 1.76953 27.9727 1.41562C27.8736 0.948469 27.7675 0.481312 27.6684 0C26.366 0.389297 24.9929 0.813981 23.4923 1.32361Z" transform="translate(128.851 136.056)" fill="#315CE8"/>
<path opacity="0.3" d="M58.0406 1.3519C52.411 3.14253 47.0581 5.70821 42.1361 8.97506C37.3197 12.181 32.0782 14.697 26.5642 16.4496C21.1104 18.3946 15.4118 19.5691 9.63333 19.9391C6.39219 20.1532 3.17189 20.6123 0 21.3122C0.2265 21.744 0.44592 22.1828 0.67242 22.6075C3.66537 21.9704 6.70028 21.5493 9.75366 21.3476C15.6449 20.9774 21.4555 19.7862 27.0172 17.8085C32.6437 16.0188 37.9941 13.4556 42.9147 10.1925C47.7319 6.98796 52.9732 4.47215 58.4866 2.718C60.0721 2.18006 61.516 1.74121 62.8467 1.36607C62.7264 0.898917 62.5989 0.445922 62.4786 0C61.1267 0.360984 59.6544 0.813966 58.0406 1.3519Z" transform="translate(93.0557 132.325)" fill="#315CE8"/>
<path opacity="0.3" d="M11.5444 1.50764L13.2998 1.35192L12.5283 0L11.4241 0.0991041C7.56828 0.344724 3.74373 0.948966 0 1.90402L0.5804 3.22056C4.17621 2.32147 7.84572 1.74817 11.5444 1.50764Z" transform="translate(86.2695 137.373)" fill="#315CE8"/>
<path opacity="0.3" d="M26.3589 1.1608C20.7333 2.95015 15.3849 5.51594 10.4685 8.78393C7.34906 10.8539 4.04624 12.6332 0.601623 14.0996C0.403436 14.7013 0.205266 15.2887 0 15.8762C3.93362 14.2997 7.69525 12.324 11.2259 9.98014C16.0431 6.7756 21.2844 4.25979 26.7978 2.50564C28.0364 2.08803 29.1831 1.73414 30.259 1.41562C30.1882 0.941391 30.1103 0.467156 30.0254 0C28.8929 0.33975 27.6755 0.721958 26.3589 1.1608Z" transform="translate(127.24 139.913)" fill="#315CE8"/>
<path opacity="0.3" d="M10.8932 1.35192L10.1217 0C8.63531 0.134484 7.09228 0.29728 5.35814 0.573326L0 3.17101C3.56637 2.2261 7.21335 1.61708 10.8932 1.35192Z" transform="translate(82.4595 126.494)" fill="#315CE8"/>
<path opacity="0.3" d="M11.87 1.41562L12.8043 1.33069L12.0328 0H11.7497C7.78178 0.253501 3.84727 0.886351 0 1.88987C0.184031 2.31456 0.375143 2.75339 0.566252 3.20639C4.26979 2.25686 8.05433 1.65731 11.87 1.41562Z" transform="translate(84.6978 133.777)" fill="#315CE8"/>
<path opacity="0.3" d="M12.1461 1.35901H12.2522L11.4807 0C7.6006 0.269362 3.75573 0.914126 0 1.92525L0.545019 3.24179C4.34199 2.24022 8.22723 1.60967 12.1461 1.35901Z" transform="translate(83.1777 130.124)" fill="#315CE8"/>
</g>
<path opacity="0.5" d="M42.5395 35.1217C42.5395 13.1299 34.4917 0 34.4917 0H32.5735C36.332 3.76556 39.4393 16.5133 38.6324 26.7766C37.7618 37.9388 41.1239 45.9441 36.3178 55.8535C31.5118 65.7629 30.1953 67.3838 24.3417 79.2113C17.5113 75.2263 19.1959 70.7883 13.4484 67.3979C7.12059 63.6607 4.37428 60.518 1.33776 58.1468C0.509624 59.6332 0 60.4614 0 60.4614L7.14891 77.7391C13.8873 79.1122 27.994 83.3591 27.994 83.3591C27.994 83.3591 28.362 82.7858 28.7726 82.1204C37.238 68.4738 42.5395 48.4781 42.5395 35.1217Z" transform="translate(116.01 119.684)" fill="#315CE8"/>
<path d="M105.591 2.86665L52.1587 0L0 17.0937L5.57048 24.6106L48.747 13.6891C48.747 13.6891 91.1733 28.0223 112.762 28.0223C125.198 28.0223 105.591 2.86665 105.591 2.86665Z" transform="translate(12.3442 188.78)" fill="#153363"/>
<path d="M22.6429 0.707812L9.47761 0L0 14.5738L3.92836 13.5758C3.92836 13.5758 10.3907 15.763 19.5498 18.4243C21.022 14.0005 17.8298 9.6758 19.5498 5.80407C20.3071 3.95355 21.3509 2.23375 22.6429 0.707812Z" transform="translate(57.1465 188.894)" fill="#1F2833"/>
<path d="M25.9272 1.41563L0 0C0.531199 2.02129 1.40503 3.93654 2.58351 5.6625C5.41476 9.90938 6.83038 7.78594 9.52715 12.5212C11.4453 15.8975 13.774 20.385 17.1998 24.8867C22.4379 25.8694 27.7478 26.421 33.0761 26.5359C45.5336 26.5713 25.9272 1.41563 25.9272 1.41563Z" transform="translate(92.0059 190.232)" fill="#1F2833"/>
<path d="M77.9656 7.19846C70.8874 6.68176 63.1015 3.84343 56.7736 1.59966C50.4458 -0.644103 36.1126 1.51472 32.0002 2.17299C27.8878 2.83126 24.009 5.64835 15.6143 6.55435C7.21969 7.46035 4.38136 8.74858 0 10.7446L1.31653 12.5212L44.4931 1.59966C44.4931 1.59966 86.9194 15.9329 108.508 15.9329C115.855 15.9329 112.047 7.17722 107.687 0C101.918 2.62598 95.9935 5.03255 92.4545 5.6625C83.7555 7.19845 85.0508 7.68685 77.9656 7.19846Z" transform="translate(16.6245 200.899)" fill="#1F2833"/>
<path d="M3.4826e-07 5.6625H14.8641V0H11.1339L2.02434 2.89495C1.4367 3.08141 0.923708 3.45018 0.559729 3.94779C0.19575 4.4454 -0.0003016 5.04598 3.4826e-07 5.6625Z" transform="translate(44.9893 210.22)" fill="#153363"/>
<path d="M0 0.731626L9.85274 11.8584L14.0996 8.10704L11.6294 5.31117L3.42581 0.413102C2.89621 0.0955623 2.27913 -0.0447666 1.66429 0.0125167C1.04945 0.0697999 0.468907 0.321717 0.00707963 0.731626H0Z" transform="translate(3.83936 204.023)" fill="#153363"/>
<path d="M2.18384 14.2978C2.0231 14.3029 1.86543 14.2531 1.73677 14.1566C1.60812 14.0601 1.51616 13.9227 1.47603 13.767C1.17398 12.6345 1.24851 11.4346 1.68838 10.3482C2.04584 9.46171 2.13926 8.49073 1.95735 7.55234C1.77523 6.70683 1.44193 5.90117 0.97349 5.17411C0.495254 4.50789 0.181759 3.73778 0.0587219 2.92696C-0.0643152 2.11615 0.00661077 1.28773 0.265678 0.509627C0.291705 0.420393 0.335048 0.337155 0.393241 0.264675C0.451435 0.192194 0.52333 0.131897 0.604831 0.0872032C0.686332 0.0425092 0.77584 0.0142945 0.868241 0.00419167C0.960642 -0.00591118 1.05413 0.00229333 1.14336 0.0283197C1.23259 0.054346 1.31583 0.0976786 1.38831 0.155872C1.46079 0.214065 1.5211 0.285972 1.56579 0.367472C1.61049 0.448973 1.63869 0.538471 1.64879 0.630871C1.6589 0.723272 1.6507 0.816766 1.62468 0.906C1.13629 2.58351 1.58928 3.37626 2.21924 4.44506C2.77037 5.31204 3.16117 6.27105 3.37297 7.27631C3.59779 8.45094 3.48741 9.66515 3.05446 10.78C2.69943 11.607 2.63213 12.5291 2.86335 13.3989C2.91085 13.58 2.88464 13.7726 2.79045 13.9344C2.69625 14.0963 2.54176 14.2142 2.3608 14.2624C2.30434 14.2845 2.24445 14.2965 2.18384 14.2978Z" transform="translate(85.2949 87.9036)" fill="#D4EEFF"/>
<path d="M1.56918 18.4404H1.44178C1.35021 18.4241 1.26273 18.39 1.18434 18.34C1.10596 18.2899 1.03821 18.2249 0.98497 18.1486C0.931725 18.0724 0.894032 17.9864 0.87404 17.8956C0.854047 17.8047 0.852148 17.7109 0.868456 17.6193C1.05141 16.4999 0.934169 15.3519 0.528698 14.2926C-0.106601 12.5678 -0.17111 10.6845 0.34467 8.92027C0.599483 7.99303 0.825983 7.24277 1.05248 6.59158C1.7603 4.29119 2.00096 3.51258 1.20113 0.978611C1.16359 0.887958 1.1453 0.790497 1.14744 0.692402C1.14958 0.594307 1.17209 0.497717 1.21354 0.408784C1.25499 0.319852 1.31448 0.240516 1.38823 0.175799C1.46198 0.111082 1.54838 0.0624135 1.64195 0.032867C1.73551 0.00332048 1.83419 -0.00646515 1.93173 0.00415962C2.02927 0.0147844 2.12355 0.0455826 2.20855 0.0945802C2.29356 0.143578 2.36745 0.209715 2.42553 0.288792C2.48362 0.367869 2.52464 0.458148 2.54597 0.55392C3.48736 3.51258 3.14761 4.6097 2.40441 7.00919C2.20622 7.64622 1.97972 8.38234 1.73906 9.28834C1.28668 10.7958 1.3439 12.4104 1.90186 13.882C2.37701 15.1538 2.50885 16.5282 2.28408 17.867C2.25225 18.0318 2.16288 18.18 2.03194 18.285C1.90099 18.39 1.73698 18.4451 1.56918 18.4404Z" transform="translate(90.6328 82.8683)" fill="#D4EEFF"/>
<path d="M8.68317 22.0342C7.33125 21.5387 7.10474 16.938 7.10474 16.938C7.10474 16.938 3.24717 17.4759 0.451311 16.4708C2.00142 7.80011 -0.674107 4.31766 0.16819 0C0.447393 0.47822 0.834926 0.884261 1.29961 1.18545C1.7643 1.48663 2.29318 1.67457 2.84372 1.73415C2.84372 1.73415 2.72339 0.120346 3.45951 0.0849556C4.19564 0.049565 6.17045 1.75538 6.17045 1.75538C6.17045 1.75538 7.19676 0.297292 8.20893 0.276057C7.8621 5.25198 9.85106 13.6254 8.68317 22.0342Z" transform="translate(140.292 88.1794)" fill="#153363"/>
<path d="M0 51.4438L12.9247 54.2751L39.3685 19.7551C39.3685 19.7551 57.3824 59.4633 76.4862 59.4633C83.7979 59.4633 90.416 53.5956 95.7954 45.1301C95.7954 45.1301 45.5973 6.56914e-06 36.9974 6.56914e-06C25.4883 -0.0212278 0 51.4438 0 51.4438Z" transform="translate(48.5986 157.361)" fill="#315CE8"/>
<path opacity="0.5" d="M165.77 3.89297C164.418 6.46941 159.689 6.0164 151.245 5.37229C142.801 4.72818 121.347 5.3723 111.211 5.71205C101.076 6.0518 69.6628 5.71205 61.3036 5.06794C52.9443 4.42383 23.7188 6.04472 12.7406 6.21459C2.99404 6.36323 3.75848 5.98101 0 4.50876C0.452348 5.48271 1.1723 6.30795 2.07589 6.88821C2.97949 7.46847 4.02947 7.77981 5.10332 7.78594H164.219C165.382 7.78597 166.517 7.42797 167.469 6.76059C168.422 6.09322 169.145 5.14884 169.542 4.05577L171.014 0H168.183C167.306 1.28114 166.371 2.74631 165.77 3.89297Z" transform="translate(209.083 208.097)" fill="#95D1FE"/>
<path opacity="0.5" d="M26.1395 35.0792C20.4345 37.9742 20.1939 33.6282 17.1361 30.0113C14.0784 26.3943 11.1056 22.8553 9.09539 15.7347C7.41079 9.75366 3.43289 2.28623 2.15883 0L0 1.04757C0 1.04757 15.6922 40.2108 22.289 40.2108C28.8858 40.2108 36.7638 30.3369 47.2182 19.9179C45.0384 22.0088 42.5746 23.7816 39.8994 25.184C35.5534 27.4348 31.8516 32.1843 26.1395 35.0792Z" transform="translate(82.2407 128.723)" fill="#315CE8"/>
<path opacity="0.5" d="M15.9895 11.1976C17.5821 5.11749 22.0696 0 22.0696 0L13.4484 8.02659C10.3022 19.0453 5.78397 29.625 0 39.5172L1.41562 42.9784C1.7889 42.3421 2.1108 41.677 2.37825 40.9894C4.42383 35.6454 6.62514 27.4065 10.2774 23.0251C13.9298 18.6438 14.3969 17.2848 15.9895 11.1976Z" transform="translate(116.01 140.614)" fill="#315CE8"/>
<path opacity="0.5" d="M56.4268 25.4105C56.4268 25.4105 54.9192 24.0585 52.3852 21.8219C49.7097 25.1769 48.9523 28.2559 44.8682 31.0234C39.3402 34.8031 38.1794 33.9396 30.0749 31.7312C21.9705 29.5229 19.9108 23.6197 13.0875 18.4739C6.26414 13.3281 5.3723 4.06284 0 0C0 0 18.0138 39.7083 37.1177 39.7083C44.4294 39.7437 51.0474 33.8688 56.4268 25.4105Z" transform="translate(87.9653 177.06)" fill="#153363"/>
<path opacity="0.5" d="M27.1729 10.7375C23.2516 18.4527 18.75 25.9201 14.3757 28.1072C10.0014 30.2944 7.65145 29.1548 3.82218 30.4218C2.7817 30.7686 1.47933 31.1296 0.134486 31.4127L0 31.6888L12.9247 34.52L39.3685 0C35.6313 2.11636 31.0942 3.02235 27.1729 10.7375Z" transform="translate(48.5986 177.116)" fill="#153363"/>
</svg>
