<svg width="404" height="200" viewBox="0 0 404 200" fill="none" xmlns="http://www.w3.org/2000/svg">
<path opacity="0.1" d="M202 5.05C313.562 5.05 404 3.91952 404 2.525C404 1.13048 313.562 0 202 0C90.4385 0 0 1.13048 0 2.525C0 3.91952 90.4385 5.05 202 5.05Z" transform="translate(0 194.425)" fill="#315CE8"/>
<path d="M2.75856 19.4678L0 15.1816V0L0.833254 0.808C1.66717 1.61338 2.22787 2.65973 2.43662 3.80012L4.09681 12.8586L6.4072 16.4883L2.75856 19.4678Z" transform="translate(299.844 31.6635)" fill="#95D1FE"/>
<path opacity="0.3" d="M6.4072 16.4882L5.34039 14.8091C4.96409 15.1764 4.55644 15.5101 4.12208 15.8065C2.85958 16.6713 3.49083 16.8165 2.22833 16.2168C0.965831 15.6171 2.09577 13.2752 0.965831 10.7439C-0.164106 8.21255 1.0605 7.25306 1.0605 5.13837C1.0605 3.42137 0.795383 2.44925 0.91532 0.877437C0.895883 0.852881 0.874769 0.829681 0.852172 0.807999L0 0V15.1816L2.75856 19.4425L6.4072 16.4882Z" transform="translate(299.844 31.6635)" fill="#56B4FC"/>
<path d="M3.10606e-07 5.05H13.2563V0H9.92955L1.80537 2.58181C1.28129 2.7481 0.823783 3.07697 0.499175 3.52075C0.174567 3.96453 -0.000268977 4.50017 3.10606e-07 5.05Z" transform="translate(321.12 191.37)" fill="#153363"/>
<path d="M13.2563 5.05H0V0H3.33302L11.4509 2.58181C11.975 2.7481 12.4325 3.07697 12.7571 3.52075C13.0817 3.96453 13.2565 4.50017 13.2563 5.05Z" transform="translate(365.522 191.37)" fill="#153363"/>
<path d="M2.73332 0L0 3.40875L1.50238 17.1826C2.60854 15.7374 3.28266 14.0083 3.44664 12.1958L4.00846 6.41982C4.05001 5.97207 4.22605 5.54734 4.51345 5.2015L6.4072 2.98582L2.73332 0Z" transform="translate(363.312 92.0236)" fill="#95D1FE"/>
<path d="M270.175 0H0V179.42H270.175V0Z" transform="translate(29.6323 17.6749)" fill="#D4EEFF"/>
<path opacity="0.5" d="M0 2.46819C10.2641 1.55288 26.5504 2.46819 45.9676 3.13731C68.8315 3.95163 86.961 0.467121 115.727 2.07681C144.493 3.6865 166.562 3.57287 197.707 2.63231C219.467 2.00106 249.312 1.67912 270.175 3.01737V0H0V2.46819Z" transform="translate(29.6699 17.6749)" fill="#95D1FE"/>
<path d="M270.175 0H0V17.675H270.175V0Z" transform="translate(29.6699)" fill="#56B4FC"/>
<path d="M9.25411 0.763807L0 92.0173H10.4598L27.674 0L9.25411 0.763807Z" transform="translate(325.578 99.9834)" fill="#315CE8"/>
<path d="M19.3794 1.28144L29.8834 93.6839L19.493 93.829L0 0L19.3794 1.28144Z" transform="translate(344.336 98.1721)" fill="#315CE8"/>
<g opacity="0.5">
<path opacity="0.5" d="M1.40768 6.08524L0 6.96901L0.271433 8.28832C0.902683 7.90325 1.48974 7.52449 2.08312 7.15205C5.72717 4.72272 9.65286 2.74506 13.7739 1.2625L13.6287 0C9.31896 1.51499 5.21389 3.55902 1.40768 6.08524Z" transform="translate(354.966 142.309)" fill="#153363"/>
<path opacity="0.5" d="M1.78645 5.81381C1.19939 6.18624 0.612313 6.55868 0 6.93743L0.271471 8.24412C1.03528 7.78962 1.74858 7.33512 2.46189 6.88062C5.89847 4.594 9.58593 2.70899 13.452 1.2625L13.3004 0C9.24712 1.47829 5.3824 3.42971 1.78645 5.81381Z" transform="translate(355.694 145.875)" fill="#153363"/>
<path opacity="0.5" d="M1.02894 6.35669L0 6.98794L0.271433 8.30725L1.70434 7.40457C5.5595 4.83933 9.72559 2.77537 14.1021 1.2625L13.9569 0C9.39106 1.55146 5.04555 3.68816 1.02894 6.35669Z" transform="translate(354.233 138.736)" fill="#153363"/>
<path opacity="0.5" d="M2.16518 5.58025C1.4645 6.02212 0.751188 6.47663 0 6.92481L0.277752 8.23781C1.17413 7.70124 2.01369 7.171 2.84063 6.64706C6.0646 4.49603 9.51245 2.70118 13.1237 1.29405L12.9785 0C9.17804 1.45279 5.55123 3.32441 2.16518 5.58025Z" transform="translate(356.424 149.411)" fill="#153363"/>
<path opacity="0.5" d="M2.525 5.28988C1.70438 5.81382 0.877438 6.33775 0 6.868L0.271433 8.1747C1.31931 7.54345 2.2788 6.95638 3.21936 6.35669C6.23432 4.35711 9.44246 2.66529 12.7955 1.30669L12.6502 0C9.10214 1.41023 5.7091 3.18292 2.525 5.28988Z" transform="translate(357.175 152.996)" fill="#153363"/>
<path opacity="0.5" d="M9.17836 2.35457C6.22865 3.382 3.20455 4.18183 0.132576 4.74701L0 6.04739C3.2557 5.47398 6.46011 4.64014 9.58237 3.55394C11.6781 2.84694 13.452 2.1652 15.0048 1.49608L15.2889 0C13.5845 0.73225 11.6024 1.51501 9.17836 2.35457Z" transform="translate(329.95 142.833)" fill="#153363"/>
<path opacity="0.5" d="M16.5703 0C12.8578 2.26101 8.88858 4.07078 4.74701 5.39088C3.04264 5.96532 1.52133 6.41981 0.138895 6.78594L0 8.1305C1.53394 7.73281 3.22571 7.23412 5.15102 6.58393C9.02935 5.34341 12.7643 3.69283 16.2926 1.66019L16.5703 0Z" transform="translate(331.083 129.88)" fill="#153363"/>
<path opacity="0.5" d="M6.22415 4.25464C3.88853 5.0437 1.89376 5.61182 0.132576 6.02845L0 7.36038C1.89375 6.92481 4.05894 6.31881 6.62812 5.46663C9.81137 4.43187 12.9044 3.13767 15.876 1.59706L16.1726 0C12.9959 1.72435 9.66536 3.14874 6.22415 4.25464Z" transform="translate(330.683 134.311)" fill="#153363"/>
<path opacity="0.5" d="M0.126258 4.15362L0 5.44769C3.76237 4.90405 7.46236 3.99278 11.0469 2.72698C12.3472 2.29142 13.5214 1.86217 14.6008 1.46449L14.8722 0C13.6097 0.505 12.2273 1.02263 10.6429 1.55919C7.22651 2.75213 3.70545 3.62077 0.126258 4.15362Z" transform="translate(329.596 146.93)" fill="#153363"/>
<path opacity="0.5" d="M2.92269 5.01845C1.98844 5.61182 1.02894 6.2052 0 6.81751L0.271433 8.1242C1.47712 7.42983 2.54395 6.75438 3.59813 6.08526C6.40251 4.22147 9.37369 2.62176 12.4735 1.30669L12.3283 0C9.03898 1.36642 5.8892 3.04702 2.92269 5.01845Z" transform="translate(357.892 156.582)" fill="#153363"/>
<path opacity="0.5" d="M0.63125 6.59025L0 7.00056L0.277752 8.31987L1.33193 7.65707C5.3968 4.94907 9.80646 2.79838 14.443 1.2625L14.2915 0C9.46021 1.56688 4.86461 3.78397 0.63125 6.59025Z" transform="translate(353.505 135.207)" fill="#153363"/>
<path opacity="0.5" d="M13.8181 1.42031L14.0895 0L13.5719 0.176769C9.23553 1.72867 4.71959 2.72347 0.132538 3.13731L0 4.39981C4.7143 4.00043 9.35808 2.99912 13.8181 1.42031Z" transform="translate(328.892 154.884)" fill="#153363"/>
<path opacity="0.5" d="M0.145175 11.0153L0 12.4546C3.08209 11.1277 6.03964 9.52851 8.8375 7.676C13.1336 4.8181 17.808 2.57441 22.725 1.01C23.5835 0.719629 24.3978 0.460803 25.1742 0.227241L21.7781 0C16.9562 1.57903 12.3698 3.8022 8.1431 6.60919C5.6049 8.29875 2.92957 9.77263 0.145175 11.0153Z" transform="translate(333.755 98.9104)" fill="#153363"/>
<path opacity="0.5" d="M0.138857 5.37826L0 6.69757C2.74893 6.12989 5.45839 5.38557 8.11155 4.46926C10.6042 3.64143 13.0452 2.66546 15.4214 1.54657L15.7118 0C13.1211 1.26516 10.4467 2.35137 7.70754 3.25095C5.23053 4.11421 2.70289 4.82465 0.138857 5.37826Z" transform="translate(330.312 138.591)" fill="#153363"/>
<path opacity="0.5" d="M0.132538 7.59394L0 8.95112C1.12363 8.62918 2.33561 8.25675 3.65492 7.80856C8.26871 6.34847 12.6721 4.29215 16.7534 1.69175L17.069 0C12.7935 2.83395 8.14522 5.0604 3.25723 6.61551C2.13992 6.98794 1.11098 7.30987 0.132538 7.59394Z" transform="translate(331.431 125.36)" fill="#153363"/>
<path opacity="0.5" d="M1.02894 1.94424L0 2.57549L2.4177 2.53762C3.04895 2.15255 3.6802 1.7675 4.31145 1.37612L4.15363 0C3.03632 0.68175 2.02 1.31299 1.02894 1.94424Z" transform="translate(369.792 189.324)" fill="#153363"/>
<path opacity="0.5" d="M3.30146 4.74701C2.25359 5.40982 1.19306 6.08526 0 6.77332L0.271433 8.03582C1.62862 7.27201 2.79643 6.52081 3.97687 5.78225C6.5813 4.06185 9.32649 2.56467 12.1831 1.30669L12.0316 0C8.98612 1.31944 6.06449 2.90808 3.30146 4.74701Z" transform="translate(358.625 160.135)" fill="#153363"/>
<path opacity="0.5" d="M4.91114 0L2.31668 0.107302C1.64124 0.504989 0.927931 0.908992 0.151494 1.31299L0 2.81537C1.68304 1.95954 3.32216 1.01991 4.91114 0Z" transform="translate(334.567 100.552)" fill="#153363"/>
<path opacity="0.5" d="M3.68016 4.41243C2.52497 5.14468 1.35087 5.88956 0 6.64706L0.271433 7.94744C1.79275 7.10156 3.08679 6.28725 4.3556 5.47925C6.73781 3.90318 9.23635 2.51042 11.8296 1.31299L11.6781 0C8.89708 1.25186 6.22229 2.72752 3.68016 4.41243Z" transform="translate(359.357 163.771)" fill="#153363"/>
<path opacity="0.5" d="M4.05893 4.12206C2.79643 4.92375 1.53394 5.73807 0 6.57763L0.265114 7.84013C1.95686 6.92482 3.35826 6.04106 4.74069 5.16362C6.9082 3.73473 9.1689 2.45254 11.5077 1.32563L11.3562 0C8.82867 1.19842 6.39004 2.57595 4.05893 4.12206Z" transform="translate(360.093 167.357)" fill="#153363"/>
<path opacity="0.5" d="M4.41875 3.76856C3.05525 4.63338 1.66019 5.51712 0 6.42612L0.265114 7.7202C2.15886 6.72913 3.64231 5.77593 5.12575 4.82906C7.08081 3.54719 9.1084 2.37953 11.1984 1.33193L11.0469 0C8.75962 1.11399 6.54575 2.37273 4.41875 3.76856Z" transform="translate(360.844 171.012)" fill="#153363"/>
<path opacity="0.5" d="M10.8827 1.33825L10.7312 0C8.70513 1.03226 6.73689 2.17442 4.83536 3.42138C3.35823 4.35563 1.86219 5.31514 0 6.28726L0.271433 7.54976C2.31037 6.48926 3.92636 5.46663 5.5108 4.46294C7.09524 3.45925 8.74912 2.424 10.8827 1.33825Z" transform="translate(361.558 174.654)" fill="#153363"/>
<path opacity="0.5" d="M14.4872 0C13.7423 0.271437 12.9596 0.549192 12.12 0.833255C8.23899 2.21401 4.21629 3.15828 0.126258 3.64862L0 4.91112C4.26726 4.42535 8.46499 3.45323 12.5114 2.01369L14.2031 1.42031L14.4872 0Z" transform="translate(329.235 150.925)" fill="#153363"/>
<path opacity="0.5" d="M0.271433 6.83013L0 7.00688L0.271433 8.32619L0.953194 7.89694C5.23006 5.05677 9.88043 2.82398 14.7712 1.2625L14.6261 0L14.4493 0.0568295C9.43245 1.64701 4.66085 3.92657 0.271433 6.83013Z" transform="translate(352.758 131.666)" fill="#153363"/>
<path opacity="0.5" d="M29.8329 1.13624C24.8127 2.72667 20.0403 5.01301 15.655 7.9285C11.3589 10.7864 6.68451 13.0301 1.76749 14.5945C1.19937 14.7839 0.662794 14.9606 0.138857 15.1247L0 16.4882C0.694375 16.2736 1.40768 16.0464 2.16518 15.7939C7.17934 14.204 11.9471 11.9221 16.3304 9.01425L17.2142 8.45875L17.3846 7.52451L17.5361 8.25044C21.4985 5.74957 25.7646 3.76606 30.2305 2.34825C31.493 1.92531 32.6356 1.57181 33.7087 1.2625L33.5636 0C32.4147 0.296688 31.1522 0.681742 29.8329 1.13624Z" transform="translate(331.825 114.08)" fill="#153363"/>
<path opacity="0.5" d="M28.3368 1.32563C23.3173 2.92034 18.5452 5.20865 14.1589 8.12418C9.86182 10.9804 5.18772 13.2239 0.271433 14.7902L0.138857 14.8281L0 16.2042L0.675443 15.9833C5.69452 14.3901 10.4665 12.104 14.8533 9.191C19.1494 6.33309 23.8238 4.08941 28.7408 2.525C30.2747 2.00737 31.6572 1.59075 32.9323 1.2625L32.7871 0C31.4363 0.334562 29.9718 0.776441 28.3368 1.32563Z" transform="translate(332.205 110.589)" fill="#153363"/>
<path opacity="0.5" d="M26.8534 1.52131C21.8367 3.11552 17.0669 5.40161 12.6818 8.31355C8.78674 10.9085 4.57306 12.9899 0.145175 14.5061L0 15.8949C4.72102 14.3239 9.21264 12.1332 13.3572 9.38037C17.6548 6.53128 22.3291 4.29613 27.2448 2.73962C29.0691 2.10837 30.6851 1.64756 32.1496 1.2625L32.0044 0C30.4831 0.366125 28.785 0.845877 26.8534 1.52131Z" transform="translate(332.574 107.098)" fill="#153363"/>
<path opacity="0.5" d="M13.3194 0.700678C8.62332 2.1871 4.14466 4.28846 0 6.95005L0.271433 8.26936C4.4458 5.54443 8.97121 3.3996 13.7234 1.89375C14.4367 1.65387 15.1121 1.43925 15.7686 1.2625L15.6234 0C14.8912 0.164125 14.1274 0.403991 13.3194 0.700678Z" transform="translate(350.558 121.13)" fill="#153363"/>
<path opacity="0.5" d="M12.9469 0.940557C8.39176 2.38382 4.04058 4.40559 0 6.95637L0.277752 8.27568C4.34439 5.66025 8.74062 3.59695 13.351 2.13995C14.3294 1.80538 15.2447 1.50869 16.1095 1.2625L15.9643 0C15.049 0.265125 14.0201 0.580744 12.9469 0.940557Z" transform="translate(349.816 117.57)" fill="#153363"/>
<path opacity="0.5" d="M13.6981 0.504992C8.85923 2.03762 4.25103 4.22068 0 6.99424L0.277752 8.31987C4.55596 5.48123 9.20883 3.25252 14.1021 1.69804L15.4341 1.2625L15.2889 0L13.6981 0.504992Z" transform="translate(351.291 124.602)" fill="#153363"/>
<path opacity="0.5" d="M25.351 1.72332C20.3338 3.31912 15.564 5.60737 11.1794 8.52187C7.72929 10.8172 4.02695 12.7086 0.145175 14.1589L0 15.5603C4.177 14.0528 8.15726 12.0479 11.8549 9.58869C16.151 6.73078 20.8253 4.4871 25.7424 2.92269C27.8697 2.20307 29.7129 1.66019 31.3605 1.2625L31.2153 0C29.5109 0.416625 27.5856 0.972132 25.351 1.72332Z" transform="translate(332.966 103.594)" fill="#153363"/>
<path opacity="0.5" d="M0 9.02057C2.54745 7.82789 5.00524 6.45236 7.35408 4.90481C10.1212 3.06512 13.0521 1.48453 16.1095 0.183068L13.4267 0C12.3725 0.505 11.4257 0.997379 10.5608 1.48344L10.6618 1.95056L9.67075 1.99475C8.60394 2.626 7.63182 3.25724 6.67232 3.83799C4.58722 5.21398 2.41542 6.45381 0.17045 7.54974L0 9.02057Z" transform="translate(334.154 98.3801)" fill="#153363"/>
<path opacity="0.5" d="M9.93587 1.3635L9.77806 0C8.37668 0.789062 7.16468 1.55918 5.99056 2.31668C4.06274 3.58538 2.06249 4.74044 0 5.77593L0.119939 6.35037H1.70438C3.59813 5.34037 5.15731 4.36825 6.666 3.40875C7.66338 2.72068 8.71756 2.05156 9.93587 1.3635Z" transform="translate(363.768 185.651)" fill="#153363"/>
<path opacity="0.5" d="M10.2704 1.3572L10.1126 0C8.40822 0.927938 6.99421 1.818 5.60546 2.70175C3.79502 3.8864 1.92401 4.97574 0 5.96532L0.271433 7.22782C2.33637 6.17859 4.34249 5.01746 6.28091 3.74963C7.55603 2.98581 8.81853 2.17783 10.2704 1.3572Z" transform="translate(362.993 181.97)" fill="#153363"/>
<path opacity="0.5" d="M23.8486 1.90007C18.832 3.49428 14.0621 5.78039 9.67704 8.69233C6.67426 10.6862 3.4814 12.3778 0.145175 13.7423L0 15.1626C3.6322 13.7326 7.10243 11.9213 10.3525 9.75914C14.6486 6.90123 19.323 4.65755 24.24 3.09314C26.6829 2.27252 28.7534 1.69175 30.5525 1.2625L30.4136 0C28.5515 0.435563 26.4052 1.04157 23.8486 1.90007Z" transform="translate(333.356 100.122)" fill="#153363"/>
<path opacity="0.5" d="M4.46926 0C3.09945 0.138875 1.64756 0.32825 0 0.63125H4.34932L4.46926 0Z" transform="translate(331.688 191.363)" fill="#153363"/>
<path opacity="0.5" d="M7.36671 1.76751C8.75546 1.64757 10.1695 1.52763 11.735 1.30669L11.9812 0C10.2642 0.2525 8.74912 0.378762 7.25937 0.505011C4.86792 0.67052 2.48824 0.976137 0.132576 1.42031L0 2.73964C2.43206 2.25725 4.89278 1.93253 7.36671 1.76751Z" transform="translate(326.773 177.451)" fill="#153363"/>
<path opacity="0.5" d="M4.41875 2.43662C7.08949 2.25571 9.74481 1.89295 12.3662 1.35086L12.6187 0C9.88238 0.595946 7.10572 0.988385 4.31145 1.17412C2.97951 1.28774 1.62233 1.40768 0.132576 1.60968L0 2.87218C1.59075 2.67649 3.01737 2.55655 4.41875 2.43662Z" transform="translate(327.5 170.185)" fill="#153363"/>
<path opacity="0.5" d="M5.90849 2.06418C7.80224 1.90637 9.74649 1.73593 12.0632 1.33193L12.3094 0C10.1576 0.382028 7.98736 0.651726 5.80751 0.807999C4.04632 0.959499 2.25357 1.111 0.126258 1.43925L0 2.73962C2.23462 2.37981 4.09049 2.22199 5.90849 2.06418Z" transform="translate(327.119 173.852)" fill="#153363"/>
<path opacity="0.5" d="M1.50238 3.37719C5.41929 3.12973 9.29836 2.46312 13.0732 1.38876L13.3383 0C9.45017 1.15494 5.44336 1.86439 1.39504 2.11469L0.132538 2.22831L0 3.49081L1.50238 3.37719Z" transform="translate(328.194 162.641)" fill="#153363"/>
<path opacity="0.5" d="M14.0705 0.277752C9.09046 1.85606 4.35471 4.12088 0 7.00686L0.271433 8.32619L0.568102 8.1368C4.86465 5.27961 9.53889 3.03598 14.4556 1.4708L15.0869 1.2625L14.9417 0C14.6324 0.0820625 14.342 0.170439 14.0705 0.277752Z" transform="translate(352.061 128.131)" fill="#153363"/>
<path opacity="0.5" d="M2.93533 2.86588C6.22408 2.65247 9.48764 2.14973 12.6881 1.3635L12.9469 0C9.63762 0.849311 6.25632 1.3882 2.84694 1.60968C1.96319 1.68543 1.06683 1.7612 0.132576 1.8622L0 3.1247C1.04156 3.03001 2.00108 2.94794 2.93533 2.86588Z" transform="translate(327.841 166.454)" fill="#153363"/>
<path opacity="0.5" d="M10.5734 1.35088L10.4219 0C8.39563 1.0605 6.79226 2.0705 5.22045 3.07418C3.64864 4.07787 2.06419 5.08156 0 6.13575L0.271433 7.39825C2.49975 6.262 4.21042 5.17626 5.89585 4.10944C7.32879 3.22569 8.78069 2.30407 10.5734 1.35088Z" transform="translate(362.265 178.303)" fill="#153363"/>
<path opacity="0.5" d="M13.4393 1.40769L13.7044 0C9.31257 1.46203 4.75145 2.35517 0.132538 2.65758L0 3.92008H0.0378735C4.59146 3.6379 9.09271 2.79404 13.4393 1.40769Z" transform="translate(328.546 158.791)" fill="#153363"/>
<path opacity="0.5" d="M10.3462 1.33195L11.1857 1.2625L11.4319 0L10.2389 0.101002C6.83086 0.319549 3.45006 0.849918 0.138857 1.68545L0 3.02369C3.38664 2.12997 6.85124 1.56346 10.3462 1.33195Z" transform="translate(326.022 184.476)" fill="#153363"/>
<path opacity="0.5" d="M10.9017 1.2625L11.1415 0C7.41665 0.26227 3.7292 0.911738 0.138857 1.93792L0 3.28881C3.55222 2.23063 7.20645 1.55141 10.9017 1.2625Z" transform="translate(325.66 187.923)" fill="#153363"/>
<path opacity="0.5" d="M8.84382 1.53393C9.68969 1.4645 10.5482 1.38874 11.4446 1.29405L11.6844 0C10.6618 0.113625 9.69598 0.195689 8.73648 0.277751C5.84175 0.468667 2.96558 0.878023 0.132538 1.50236L0 2.83431C2.9085 2.16545 5.86589 1.73061 8.84382 1.53393Z" transform="translate(326.412 180.979)" fill="#153363"/>
</g>
<path opacity="0.5" d="M29.4857 1.2625L10.1063 0L10.5545 2.15888L0.593376 2.56919L0 8.3767C7.97268 8.71757 21.2352 4.55132 25.8812 6.29988C27.1437 13.8749 26.5125 23.3436 29.0375 32.1811C31.5625 41.0186 33.1911 44.2696 33.0396 62.5947C32.9197 77.246 35.9875 84.5812 38.3169 93.7217L39.9771 93.6838L29.4857 1.2625Z" transform="translate(334.237 98.1907)" fill="#153363"/>
<path d="M3.7875 12.625C5.87928 12.625 7.575 9.7988 7.575 6.3125C7.575 2.8262 5.87928 0 3.7875 0C1.69572 0 0 2.8262 0 6.3125C0 9.7988 1.69572 12.625 3.7875 12.625Z" transform="translate(344.652 35.9813)" fill="#95D1FE"/>
<path d="M3.7875 12.625C5.87928 12.625 7.575 9.7988 7.575 6.3125C7.575 2.8262 5.87928 0 3.7875 0C1.69572 0 0 2.8262 0 6.3125C0 9.7988 1.69572 12.625 3.7875 12.625Z" transform="translate(344.652 35.9813)" fill="#95D1FE"/>
<path opacity="0.5" d="M2.91637 0C1.74225 0 0.694375 0.88375 0 2.27881C1.77381 2.91006 2.97949 3.04263 3.50343 3.9895C4.07787 5.03738 3.26987 6.04737 4.76593 7.32881C5.35299 7.82118 5.16993 9.12787 6.22412 9.32356C6.53603 8.35057 6.69156 7.33424 6.68492 6.3125C6.70386 2.82169 4.99319 0 2.91637 0Z" transform="translate(345.534 36.038)" fill="#56B4FC"/>
<path d="M80.9262 26.784L61.9193 5.90218C61.3847 5.31475 60.7191 4.86169 59.9766 4.57981C59.234 4.29793 58.4355 4.19517 57.6457 4.27988L54.7925 4.58287L46.3148 13.7044C46.2757 13.7436 46.2334 13.7794 46.1885 13.8117L45.2859 14.7776L44.9513 14.0201C44.7869 13.9595 44.6368 13.8653 44.5108 13.7436C44.3847 13.6219 44.2853 13.4753 44.219 13.3131L41.3153 6.04738L39.4216 6.25568C37.0947 6.49463 34.8555 7.27273 32.8818 8.52819L20.2568 16.5892L6.3125 0L0 5.68125L15.5919 27.0933C16.5426 28.3943 17.9548 29.2825 19.5392 29.5759C21.1236 29.8693 22.7602 29.5457 24.1138 28.6714L34.9397 21.7276L32.7682 56.9451L65.2018 55.2786L61.9824 22.3273L72.2402 33.5762L64.9241 45.6394L70.3907 50.8661L81.4754 34.5925C82.2758 33.419 82.657 32.0098 82.5573 30.5928C82.4577 29.1758 81.883 27.8339 80.9262 26.784Z" transform="translate(300.345 46.3907)" fill="#153363"/>
<path d="M5.72544 11.2236L16.16 0L0 1.74857L3.62969 10.8322C3.70873 11.0297 3.83637 11.204 4.00075 11.3389C4.16513 11.4738 4.36092 11.565 4.56997 11.604C4.77902 11.6431 4.99456 11.6287 5.19656 11.5622C5.39856 11.4957 5.58047 11.3792 5.72544 11.2236Z" transform="translate(340.941 50.7649)" fill="#95D1FE"/>
<path d="M10.403 0L0 1.12362L2.525 7.43612C2.56429 7.53687 2.62881 7.62584 2.71236 7.69449C2.79591 7.76314 2.89572 7.80917 3.00217 7.82818C3.10863 7.84719 3.21816 7.83854 3.3203 7.80304C3.42245 7.76755 3.5138 7.70641 3.58553 7.62549L10.403 0Z" transform="translate(343.148 51.1311)" fill="white"/>
<path d="M10.4869 15.0869C8.3343 13.6224 8.73829 9.81593 8.73829 9.81593C8.73829 9.81593 -1.23543 8.44612 0.128067 0C2.70988 0.549187 5.49369 0.214624 10.1839 6.80487C10.4427 7.08893 11.3833 8.52187 11.6926 6.48294C13.3843 9.01425 11.3201 12.7323 10.4869 15.0869Z" transform="translate(341.552 29.1769)" fill="#153363"/>
<path d="M6.24939 36.139C6.24939 36.139 2.96687 2.79012 2.72069 0C3.11837 10.0432 0.826938 10.3967 1.2625 16.5387C1.64125 21.9738 4.00844 29.9086 0 36.341L6.24939 36.139Z" transform="translate(359.303 65.5236)" fill="#1F2833"/>
<path d="M136.35 0H0V97.8438H136.35V0Z" transform="translate(51.1318 41.6624)" fill="white"/>
<path opacity="0.5" d="M23.1353 43.6509L38.4053 54.9692L70.1193 16.9238L85.1872 30.9123L112.4 0V74.5885H0L23.1353 43.6509Z" transform="translate(63.1064 53.29)" fill="#FFD066"/>
<path opacity="0.5" d="M0 0V1.89375C0 3.73535 0.731576 5.50151 2.03378 6.80372C3.33599 8.10592 5.10215 8.8375 6.94375 8.8375C8.78535 8.8375 10.5515 8.10592 11.8537 6.80372C13.1559 5.50151 13.8875 3.73535 13.8875 1.89375V0H0Z" transform="translate(119.938 164.125)" fill="#95D1FE"/>
<path d="M133.825 0V5.68125H2.525V0H0V13.8875H2.525V8.20625H133.825V13.8875H136.35V0H133.825Z" transform="translate(51.1318 157.181)" fill="#95D1FE"/>
<path d="M6.94375 13.8875C10.7787 13.8875 13.8875 10.7787 13.8875 6.94375C13.8875 3.10882 10.7787 0 6.94375 0C3.10882 0 0 3.10882 0 6.94375C0 10.7787 3.10882 13.8875 6.94375 13.8875Z" transform="translate(119.938 157.181)" fill="#153363"/>
<path d="M8.8375 2.525V0H0V2.525H3.15625V65.65H0V68.175H8.8375V65.65H5.68125V2.525H8.8375Z" transform="translate(241.139 105.419)" fill="#95D1FE"/>
<path d="M8.8375 2.525V0H0V2.525H3.15625V65.65H0V68.175H8.8375V65.65H5.68125V2.525H8.8375Z" transform="translate(266.389 105.419)" fill="#95D1FE"/>
<path d="M8.8375 2.525V0H0V2.525H3.15625V65.65H0V68.175H8.8375V65.65H5.68125V2.525H8.8375Z" transform="translate(215.889 105.419)" fill="#95D1FE"/>
<path opacity="0.5" d="M15.15 0H0V7.575H15.15V0Z" transform="translate(212.732 140.769)" fill="#95D1FE"/>
<path opacity="0.5" d="M15.15 0H0V7.575H15.15V0Z" transform="translate(237.982 120.569)" fill="#95D1FE"/>
<path opacity="0.5" d="M15.15 0H0V7.575H15.15V0Z" transform="translate(263.232 155.288)" fill="#95D1FE"/>
<path d="M15.15 0H0V7.575H15.15V0Z" transform="translate(212.732 138.875)" fill="#153363"/>
<path d="M15.15 0H0V7.575H15.15V0Z" transform="translate(237.982 118.675)" fill="#315CE8"/>
<path d="M15.15 0H0V7.575H15.15V0Z" transform="translate(263.232 153.394)" fill="white"/>
<path d="M3.7875 7.575C5.87928 7.575 7.575 5.87928 7.575 3.7875C7.575 1.69572 5.87928 0 3.7875 0C1.69572 0 0 1.69572 0 3.7875C0 5.87928 1.69572 7.575 3.7875 7.575Z" transform="translate(215.889 71.9626)" fill="white"/>
<path d="M3.7875 7.575C5.87928 7.575 7.575 5.87928 7.575 3.7875C7.575 1.69572 5.87928 0 3.7875 0C1.69572 0 0 1.69572 0 3.7875C0 5.87928 1.69572 7.575 3.7875 7.575Z" transform="translate(229.143 71.9626)" fill="#153363"/>
<path d="M3.7875 7.575C5.87928 7.575 7.575 5.87928 7.575 3.7875C7.575 1.69572 5.87928 0 3.7875 0C1.69572 0 0 1.69572 0 3.7875C0 5.87928 1.69572 7.575 3.7875 7.575Z" transform="translate(242.399 71.9626)" fill="#95D1FE"/>
<path d="M3.7875 7.575C5.87928 7.575 7.575 5.87928 7.575 3.7875C7.575 1.69572 5.87928 0 3.7875 0C1.69572 0 0 1.69572 0 3.7875C0 5.87928 1.69572 7.575 3.7875 7.575Z" transform="translate(255.656 71.9626)" fill="#315CE8"/>
<path d="M3.7875 7.575C5.87928 7.575 7.575 5.87928 7.575 3.7875C7.575 1.69572 5.87928 0 3.7875 0C1.69572 0 0 1.69572 0 3.7875C0 5.87928 1.69572 7.575 3.7875 7.575Z" transform="translate(268.913 71.9626)" fill="#56B4FC"/>
<path d="M3.7875 7.575C5.87928 7.575 7.575 5.87928 7.575 3.7875C7.575 1.69572 5.87928 0 3.7875 0C1.69572 0 0 1.69572 0 3.7875C0 5.87928 1.69572 7.575 3.7875 7.575Z" transform="translate(242.399 56.8125)" fill="#95D1FE"/>
<path d="M3.7875 7.575C5.87928 7.575 7.575 5.87928 7.575 3.7875C7.575 1.69572 5.87928 0 3.7875 0C1.69572 0 0 1.69572 0 3.7875C0 5.87928 1.69572 7.575 3.7875 7.575Z" transform="translate(229.143 56.8125)" fill="#56B4FC"/>
<path d="M3.7875 7.575C5.87928 7.575 7.575 5.87928 7.575 3.7875C7.575 1.69572 5.87928 0 3.7875 0C1.69572 0 0 1.69572 0 3.7875C0 5.87928 1.69572 7.575 3.7875 7.575Z" transform="translate(215.889 56.8125)" fill="#315CE8"/>
<path d="M3.7875 7.575C5.87928 7.575 7.575 5.87928 7.575 3.7875C7.575 1.69572 5.87928 0 3.7875 0C1.69572 0 0 1.69572 0 3.7875C0 5.87928 1.69572 7.575 3.7875 7.575Z" transform="translate(255.656 56.8125)" fill="white"/>
<path d="M3.7875 7.575C5.87928 7.575 7.575 5.87928 7.575 3.7875C7.575 1.69572 5.87928 0 3.7875 0C1.69572 0 0 1.69572 0 3.7875C0 5.87928 1.69572 7.575 3.7875 7.575Z" transform="translate(268.913 56.8125)" fill="#56B4FC"/>
<path d="M3.7875 7.575C5.87928 7.575 7.575 5.87928 7.575 3.7875C7.575 1.69572 5.87928 0 3.7875 0C1.69572 0 0 1.69572 0 3.7875C0 5.87928 1.69572 7.575 3.7875 7.575Z" transform="translate(215.889 41.6624)" fill="#95D1FE"/>
<path d="M3.7875 7.575C5.87928 7.575 7.575 5.87928 7.575 3.7875C7.575 1.69572 5.87928 0 3.7875 0C1.69572 0 0 1.69572 0 3.7875C0 5.87928 1.69572 7.575 3.7875 7.575Z" transform="translate(229.143 41.6624)" fill="white"/>
<path d="M3.7875 7.575C5.87928 7.575 7.575 5.87928 7.575 3.7875C7.575 1.69572 5.87928 0 3.7875 0C1.69572 0 0 1.69572 0 3.7875C0 5.87928 1.69572 7.575 3.7875 7.575Z" transform="translate(242.399 41.6624)" fill="#56B4FC"/>
<path d="M3.7875 7.575C5.87928 7.575 7.575 5.87928 7.575 3.7875C7.575 1.69572 5.87928 0 3.7875 0C1.69572 0 0 1.69572 0 3.7875C0 5.87928 1.69572 7.575 3.7875 7.575Z" transform="translate(255.656 41.6624)" fill="white"/>
<path d="M3.7875 7.575C5.87928 7.575 7.575 5.87928 7.575 3.7875C7.575 1.69572 5.87928 0 3.7875 0C1.69572 0 0 1.69572 0 3.7875C0 5.87928 1.69572 7.575 3.7875 7.575Z" transform="translate(268.913 41.6624)" fill="#153363"/>
<path d="M113.979 0.0946836L113.865 0L86.6706 30.8807L71.5774 16.8733L39.7751 55.0197L24.4546 43.6699L0 76.3686H3.15625L24.9723 47.1922L40.1854 58.4727L71.811 20.5346L86.8537 34.4978L113.979 3.69281V0.0946836Z" transform="translate(61.5283 51.5096)" fill="#FFD066"/>
<path d="M24.1769 22.5329L5.16994 1.65111C4.63537 1.06368 3.96977 0.610622 3.22722 0.328738C2.48467 0.0468535 1.68609 -0.0559036 0.896364 0.0288036L0 0.123487C6.3125 3.91099 6.50187 9.32711 11.5519 11.8521C11.5519 11.8521 18.4956 15.6396 20.3894 21.3209C21.7592 25.4366 24.8081 26.2446 25.6351 28.2962C25.884 27.2896 25.8812 26.2373 25.6269 25.2321C25.3726 24.2269 24.8746 23.2999 24.1769 22.5329Z" transform="translate(357.102 50.6416)" fill="#1F2833"/>
<path d="M20.7429 22.1316C15.8696 22.1948 16.2231 17.3783 10.3399 12.0821C4.45663 6.78594 5.28987 4.47556 1.30037 0.0883746L1.14256 0L0 1.03525L15.5919 22.4473C16.5366 23.751 17.9438 24.6445 19.5256 24.9448C21.1074 25.2452 22.7442 24.9299 24.1011 24.0633L34.9271 17.1195C30.2053 16.6082 25.6161 22.0748 20.7429 22.1316Z" transform="translate(300.363 50.9991)" fill="#1F2833"/>
<path d="M15.15 0.125119C12.625 -0.291506 10.3841 0.396549 6.54606 1.24242C2.19675 2.20192 2.56919 0.611181 0 0.440744V3.13617H15.15V0.125119Z" transform="translate(212.732 143.314)" fill="#1F2833"/>
<path opacity="0.3" d="M15.15 0.905779C13.0542 -0.514533 10.3778 0.0409629 6.79225 0.527025C2.05157 1.15828 1.48975 -0.10423 0 0.0283324V2.16828H15.15V0.905779Z" transform="translate(237.982 124.082)" fill="#153363"/>
<path opacity="0.5" d="M15.15 0.0768596C12.9406 -0.333453 10.3399 1.01742 7.61919 1.33936C4.3935 1.71811 2.18412 0.234687 0 0.663936V3.82018H15.15V0.0768596Z" transform="translate(263.232 157.174)" fill="#D4EEFF"/>
<path d="M6.94382 7.68862C8.46172 7.68688 9.93725 7.18781 11.1446 6.26779C12.3519 5.34777 13.2244 4.05749 13.6288 2.59443C12.2274 4.62074 12.1643 2.68911 9.44357 4.22936C7.75182 5.18886 5.94013 6.45137 3.35201 4.949C1.24994 3.72437 0.87751 2.14625 0.04426 0C0.0136304 0.247093 -0.00113368 0.49589 6.78197e-05 0.74487C6.78197e-05 2.58647 0.731644 4.35263 2.03385 5.65484C3.33606 6.95705 5.10222 7.68862 6.94382 7.68862Z" transform="translate(119.938 163.38)" fill="#1F2833"/>
</svg>
