<svg width="540" height="259" viewBox="0 0 540 259" fill="none" xmlns="http://www.w3.org/2000/svg">
<path opacity="0.1" d="M270 6.75C419.117 6.75 540 5.23896 540 3.375C540 1.51104 419.117 0 270 0C120.883 0 0 1.51104 0 3.375C0 5.23896 120.883 6.75 270 6.75Z" transform="translate(0 252.146)" fill="#315CE8"/>
<path d="M0.123934 16.1241C1.67643 17.6766 2.98424 14.9006 5.28768 16.2506C7.59111 17.6006 8.01299 16.1241 9.90299 16.0228C11.793 15.9216 11.5905 16.2253 13.5649 16.1241C17.0327 12.5213 12.468 5.53501 12.468 5.53501C12.468 5.53501 12.1305 0 7.54893 0C0.123936 0 -0.331691 8.31094 0.123934 16.1241Z" transform="translate(124.753 35.4291)" fill="#153363"/>
<path d="M4.15144e-07 6.75H17.7188V0H13.2722L2.41313 3.45094C1.71262 3.6732 1.10111 4.1128 0.667227 4.70598C0.233345 5.29915 -0.000359523 6.01508 4.15144e-07 6.75Z" transform="translate(94.2051 249.615)" fill="#1F2833"/>
<path d="M17.7188 6.75H0V0H4.45501L15.3056 3.45094C16.0061 3.6732 16.6177 4.1128 17.0515 4.70598C17.4854 5.29915 17.7191 6.01508 17.7188 6.75Z" transform="translate(140.002 249.615)" fill="#1F2833"/>
<path d="M4.66594 123.331H18.5541C16.5628 59.7713 25.4222 32.8809 19.0519 10.9266C6.28594 1.94064 0 0 0 0L4.66594 123.331Z" transform="translate(132.297 126.284)" fill="#FFD066"/>
<path d="M19.845 0C10.4625 25.5403 12.6478 60.3365 0 115.071C0 115.071 4.07532 119.77 16.1156 118.547C24.9497 64.5469 30.645 62.4375 40.2891 3.79687L19.845 0Z" transform="translate(97.1802 131.068)" fill="#FFD066"/>
<path opacity="0.7" d="M54.1687 10.9266C41.4028 1.9322 35.1169 0 35.1169 0L35.4037 7.67813L19.845 4.78407C10.4625 30.3244 12.6478 65.1206 0 119.855C0.91107 120.731 1.98633 121.42 3.16406 121.88C4.50562 118.454 5.83876 114.801 6.77532 111.755C9.4247 103.022 10.5216 89.4628 11.1037 82.1222C11.6859 74.7816 14.4112 66.3947 16.1662 58.7503C17.9212 51.1059 20.0644 43.3181 19.71 33.5053C19.3556 23.6925 23.0259 16.6303 23.0259 10.7241C27.4641 12.825 31.4634 12.1331 39.5803 13.0528C47.0475 13.8966 48.794 15.4238 54.8943 13.6181C54.6918 12.6985 54.4219 11.8125 54.1687 10.9266Z" transform="translate(97.1802 126.284)" fill="#F99E35"/>
<g opacity="0.5">
<path opacity="0.5" d="M13.7869 0.438766C9.18772 0.729164 4.57138 0.582239 0 0L0.0590558 1.6875C4.63432 2.2574 9.25282 2.39864 13.8544 2.10937C14.8837 2.06719 15.93 2.02502 17.01 1.99971C17.0438 1.43721 17.0775 0.874709 17.1113 0.312209C16.0059 0.345959 14.9091 0.396579 13.7869 0.438766Z" transform="translate(134.715 190.855)" fill="#F99E35"/>
<path opacity="0.5" d="M12.6563 0.312184C8.43623 0.56432 4.20246 0.459891 0 0L0.0590687 1.6875C4.2761 2.14287 8.52421 2.23884 12.7575 1.97437C13.9978 1.92375 15.2888 1.87311 16.5713 1.85624C16.5713 1.28249 16.6388 0.717172 16.6641 0.168735C15.1875 0.202485 13.905 0.253121 12.6563 0.312184Z" transform="translate(135.004 195.547)" fill="#F99E35"/>
<path opacity="0.5" d="M0 0L0.0675015 1.7297C6.54866 3.11478 13.1857 3.62838 19.8028 3.25689L19.8788 1.56939C13.212 1.9549 6.52373 1.42687 0 0Z" transform="translate(133.668 162.387)" fill="#F99E35"/>
<path opacity="0.5" d="M11.6606 1.88157C13.1119 1.82251 14.58 1.76344 16.1662 1.74657L16.2422 0.0590687C14.6137 0.0590687 13.095 0.135009 11.5931 0.194072C7.72952 0.428263 3.8536 0.363373 0 0L0.0590687 1.6875C3.91589 2.04343 7.79405 2.10831 11.6606 1.88157Z" transform="translate(135.102 200.221)" fill="#F99E35"/>
<path opacity="0.5" d="M0.919684 0.151869L0 0L0.0675015 1.73812L0.590622 1.84782C7.01016 3.26871 13.5892 3.83611 20.1572 3.53532C20.1572 2.96157 20.1572 2.40469 20.1572 1.84782C13.6978 2.13894 7.22847 1.56861 0.919684 0.151869Z" transform="translate(133.484 157.646)" fill="#F99E35"/>
<path opacity="0.5" d="M14.8837 0.590635C9.91543 0.909677 4.92741 0.711729 0 0L0.0675015 1.6875C4.99953 2.38066 9.98929 2.57008 14.9597 2.25282L17.4909 2.16C17.4909 1.59469 17.5669 1.02937 17.6006 0.472498L14.8837 0.590635Z" transform="translate(134.56 186.138)" fill="#F99E35"/>
<path opacity="0.5" d="M2.30344 2.81812C8.31007 5.79581 14.6897 7.95262 21.271 9.23063C21.3806 8.69063 21.4819 8.13375 21.5916 7.54313C15.1516 6.28446 8.90876 4.17041 3.02906 1.25718C2.13469 0.843742 1.24031 0.413438 0.303751 0L0 1.6875C0.77625 2.10094 1.54406 2.46375 2.30344 2.81812Z" transform="translate(111.827 150.01)" fill="#F99E35"/>
<path opacity="0.5" d="M19.2713 1.32469C12.8172 1.73812 6.3368 1.29266 0 0L0.0675016 1.72968C6.40812 2.99362 12.8866 3.42478 19.3387 3.01219H19.3894C19.3894 2.43844 19.4569 1.88157 19.4822 1.32469H19.2713Z" transform="translate(133.843 167.162)" fill="#F99E35"/>
<path opacity="0.5" d="M22.6631 7.76249C15.8741 6.51817 9.29152 4.33437 3.105 1.27405C2.20218 0.85217 1.29937 0.430313 0.354374 0C0.236249 0.5625 0.118125 1.125 0 1.6875L2.38781 2.79281C8.70008 5.91523 15.416 8.14441 22.3425 9.41626C28.4813 10.7683 34.7669 11.3353 41.0485 11.1038C41.0485 10.5384 41.0485 9.97313 41.0485 9.41626C34.8747 9.64747 28.6966 9.09174 22.6631 7.76249Z" transform="translate(112.658 145.47)" fill="#F99E35"/>
<path opacity="0.5" d="M17.0775 0.92813C11.3683 1.29805 5.63544 0.986476 0 0L0.0675016 1.6875C5.70572 2.64994 11.4371 2.9501 17.145 2.58187L18.4444 2.53125C18.4444 1.96594 18.5203 1.40062 18.5541 0.84375L17.0775 0.92813Z" transform="translate(134.21 176.68)" fill="#F99E35"/>
<path opacity="0.5" d="M18.1659 1.13062C12.0872 1.51492 5.9842 1.13508 0 0L0.0590558 1.72968C6.05206 2.83977 12.1592 3.20536 18.2419 2.81812H18.9253L19.0266 1.13062H18.1659Z" transform="translate(134.027 171.921)" fill="#F99E35"/>
<path opacity="0.5" d="M15.9806 0.75937C10.642 1.09834 5.28237 0.843661 0 0L0.0675015 1.6875C5.35244 2.50675 10.7107 2.75004 16.0481 2.41311L17.955 2.33718C17.9972 1.76343 18.0309 1.20655 18.0731 0.649678L15.9806 0.75937Z" transform="translate(134.385 181.414)" fill="#F99E35"/>
<path opacity="0.5" d="M18.1912 6.25219C12.0847 4.9889 6.16631 2.94427 0.58219 0.16876L0.21937 0C0.15187 0.582187 0.0759375 1.17281 0 1.76343C5.6405 4.54793 11.6112 6.60622 17.7694 7.88907L18.1912 6.25219Z" transform="translate(106.922 187.615)" fill="#F99E35"/>
<path opacity="0.5" d="M16.2591 7.31532C16.3856 6.75845 16.5206 6.21 16.6556 5.67C10.9759 4.45159 5.4652 2.54764 0.244695 0C0.168757 0.57375 0.084375 1.15594 0 1.74657C5.18077 4.23836 10.6385 6.10764 16.2591 7.31532Z" transform="translate(105.054 201.731)" fill="#F99E35"/>
<path opacity="0.5" d="M15.3141 6.885C15.4153 6.31969 15.5081 5.77125 15.6094 5.1975C10.3389 4.05656 5.2174 2.31258 0.345928 0C0.227803 0.565312 0.118125 1.12219 0 1.6875C4.89213 3.9925 10.0295 5.73611 15.3141 6.885Z" transform="translate(99.437 234.056)" fill="#F99E35"/>
<path opacity="0.5" d="M2.82656 1.09686C2.05874 0.734052 1.27406 0.362812 0.472498 0C0.312186 0.54 0.151875 1.08844 0 1.63688L2.10938 2.62405C8.41825 5.74565 15.1317 7.97212 22.0556 9.23907C27.4602 10.4175 32.9772 11.0031 38.5088 10.9856C38.4497 10.4119 38.3906 9.85499 38.3231 9.29811C32.9653 9.30581 27.6221 8.74009 22.3847 7.61061C15.5948 6.35677 9.01235 4.16451 2.82656 1.09686Z" transform="translate(114.767 136.526)" fill="#F99E35"/>
<path opacity="0.5" d="M7.18875 3.4678C9.23063 3.8728 11.07 4.19342 12.7744 4.43811C11.3653 3.54373 10.0659 2.75062 8.89313 2.07562L7.52626 1.81406C4.61532 1.22343 2.16 0.615937 0 0L0.0675016 1.77188C2.13469 2.35407 4.47188 2.91936 7.18875 3.4678Z" transform="translate(132.388 128.62)" fill="#F99E35"/>
<path opacity="0.5" d="M0.236249 0C0.160311 0.57375 0.084375 1.16438 0 1.74657C5.31624 4.32762 10.926 6.25418 16.7063 7.48406L17.1113 5.84718C11.2665 4.60192 5.59842 2.63793 0.236249 0Z" transform="translate(105.708 197.04)" fill="#F99E35"/>
<path opacity="0.5" d="M15.2297 6.91876L15.5588 5.23126C10.2871 4.07894 5.16556 2.32363 0.295318 0C0.194068 0.57375 0.10125 1.13906 0 1.6875C4.86264 4.00099 9.97181 5.75595 15.2297 6.91876Z" transform="translate(102.104 220.293)" fill="#F99E35"/>
<path opacity="0.5" d="M15.1791 6.88498C15.2888 6.3281 15.3985 5.77966 15.4997 5.19748C10.255 4.05174 5.15917 2.30786 0.312196 0C0.210946 0.57375 0.109688 1.13906 0 1.6875C4.85001 3.9807 9.94137 5.72402 15.1791 6.88498Z" transform="translate(101.26 224.892)" fill="#F99E35"/>
<path opacity="0.5" d="M15.3647 6.98625C15.4828 6.42937 15.6009 5.88094 15.7106 5.29875C10.3815 4.13595 5.2055 2.35778 0.286872 0C0.194059 0.57375 0.10125 1.14752 0 1.7297C4.90568 4.05882 10.0604 5.82232 15.3647 6.98625Z" transform="translate(102.898 215.669)" fill="#F99E35"/>
<path opacity="0.5" d="M15.9131 7.16343L16.2928 5.51811C10.7488 4.32229 5.36705 2.46987 0.26156 0C0.177185 0.57375 0.0928125 1.15594 0 1.73812C5.07368 4.16332 10.4146 5.98423 15.9131 7.16343Z" transform="translate(104.339 206.406)" fill="#F99E35"/>
<path opacity="0.5" d="M15.5756 7.0875C15.7022 6.53062 15.8203 5.98218 15.9469 5.4C10.528 4.21955 5.26634 2.40716 0.269993 0C0.177181 0.57375 0.0928125 1.14749 0 1.72968C4.96805 4.10989 10.1946 5.90777 15.5756 7.0875Z" transform="translate(103.656 211.021)" fill="#F99E35"/>
<path opacity="0.5" d="M15.2128 6.86814C15.3141 6.30283 15.4153 5.75439 15.5166 5.18064C10.2734 4.03753 5.17785 2.29938 0.329062 0L0 1.6875C4.85962 3.98186 9.96293 5.71977 15.2128 6.86814Z" transform="translate(100.384 229.491)" fill="#F99E35"/>
<path opacity="0.5" d="M7.2225 0.139482C4.96969 0.232294 2.68313 0.33354 0 0.240728L0.0590687 1.92823C2.74219 2.00417 5.03719 1.92822 7.29 1.81854C9.54281 1.70885 12.0234 1.62449 14.8838 1.72574C14.8838 1.16042 14.8838 0.603549 14.8838 0.038236C12.015 -0.0545766 9.60187 0.0382319 7.2225 0.139482Z" transform="translate(135.803 218.517)" fill="#F99E35"/>
<path opacity="0.5" d="M9.40781 0.139585C6.27451 0.321453 3.1333 0.321453 0 0.139585L0.0675016 1.82709C3.20373 2.00504 6.34753 2.00504 9.48376 1.82709C11.3738 1.74271 13.2891 1.66677 15.4406 1.69208C15.4406 1.12677 15.4828 0.569894 15.4997 0.00458172C13.2975 -0.0207308 11.3653 0.0636473 9.40781 0.139585Z" transform="translate(135.45 209.397)" fill="#F99E35"/>
<path opacity="0.5" d="M8.31938 0.145105C5.78813 0.246355 3.1725 0.356041 0 0.195728L0.0675015 1.88323C3.23156 2.0351 5.8303 1.88324 8.38686 1.81574C10.5047 1.73137 12.6056 1.64699 15.1369 1.70605L15.1875 0.0185479C12.6562 -0.0405146 10.4709 0.0522927 8.31938 0.145105Z" transform="translate(135.624 213.955)" fill="#F99E35"/>
<path opacity="0.5" d="M6.13406 0.139829C4.19344 0.215766 2.2275 0.300136 0 0.266386L0.0675015 1.95389C2.295 1.95389 4.28625 1.90326 6.21 1.81888C8.78344 1.71763 11.3991 1.60795 14.6475 1.76826V0.0807603C11.3906 -0.0795521 8.74125 0.0301415 6.13406 0.139829Z" transform="translate(135.972 223.082)" fill="#F99E35"/>
<path opacity="0.5" d="M5.0625 0.132744C3.4425 0.200244 1.80562 0.267747 0 0.267747L0.0675015 1.95525C1.85625 1.95525 3.49313 1.88774 5.13 1.82024C8.22121 1.64285 11.3201 1.64285 14.4113 1.82024C14.4113 1.25493 14.4113 0.689619 14.4113 0.132744C11.2975 -0.044248 8.17624 -0.044248 5.0625 0.132744Z" transform="translate(136.131 227.645)" fill="#F99E35"/>
<path opacity="0.5" d="M2.43 0.84375L0.548432 0C0.362807 0.531563 0.177187 1.07157 0 1.61157L1.6875 2.40469C7.99509 5.53126 14.7088 7.76065 21.6337 9.02814C26.5395 10.0815 31.5347 10.6635 36.5512 10.7663C36.4584 10.1925 36.3487 9.6272 36.239 9.07876C31.4384 8.95761 26.6593 8.39271 21.9628 7.39126C15.1787 6.12924 8.60418 3.92542 2.43 0.84375Z" transform="translate(116.086 132.214)" fill="#F99E35"/>
<path opacity="0.5" d="M3.95719 0.137811C2.67469 0.188436 1.37531 0.239056 0 0.264368L0.0675015 1.95187C1.44281 1.95187 2.74219 1.87593 4.02469 1.81687C7.43139 1.61688 10.8476 1.64224 14.2509 1.8928C14.2509 1.32749 14.2509 0.753737 14.2509 0.2053C10.8249 -0.0436799 7.38618 -0.0662176 3.95719 0.137811Z" transform="translate(136.32 232.205)" fill="#F99E35"/>
<path opacity="0.5" d="M10.4962 0.160315C6.99922 0.363199 3.49247 0.329376 0 0.0590687L0.0590558 1.74657C3.55784 2.00559 7.07002 2.03096 10.5722 1.8225C12.2597 1.755 13.9472 1.6875 15.7781 1.6875L15.854 0C13.9472 0.016875 12.2091 0.0759396 10.4962 0.160315Z" transform="translate(135.281 204.819)" fill="#F99E35"/>
<path opacity="0.5" d="M8.69062 1.15593V1.62843L0 0C4.76968 1.92111 9.71877 3.3626 14.7741 4.30313C19.0594 5.20934 23.41 5.77362 27.7847 5.99063C27.6834 5.61938 27.5822 5.23968 27.4725 4.86843L26.5528 4.23562C22.7071 3.97112 18.8842 3.44113 15.1116 2.64939C12.69 2.16845 10.5806 1.6875 8.69062 1.15593Z" transform="translate(123.879 132.333)" fill="#F99E35"/>
<path opacity="0.5" d="M2.11781 2.7675C8.126 5.74142 14.5051 7.89803 21.0853 9.17998C21.195 8.63154 21.3047 8.0831 21.4228 7.49248C14.983 6.23322 8.74025 4.11922 2.86031 1.20656C2.01656 0.801556 1.17281 0.405 0.269993 0C0.177181 0.57375 0.0928125 1.15594 0 1.73812C0.70875 2.10093 1.4175 2.43844 2.11781 2.7675Z" transform="translate(111.087 154.625)" fill="#F99E35"/>
<path opacity="0.5" d="M15.9891 5.30719C10.5974 4.1505 5.35898 2.36942 0.379685 0L0 1.6875C4.51444 3.8123 9.24021 5.45543 14.0991 6.58968C14.6559 6.58968 15.2212 6.52219 15.7866 6.46313C15.8625 6.075 15.93 5.68688 15.9891 5.30719Z" transform="translate(97.4966 243.151)" fill="#F99E35"/>
<path opacity="0.5" d="M22.6041 7.72031C15.8131 6.47942 9.22962 4.29252 3.04594 1.22345L0.396564 0C0.261564 0.556875 0.135 1.11375 0 1.6875C0.793125 2.04187 1.56095 2.40468 2.32876 2.75905C8.63327 5.8859 15.3443 8.11533 22.2666 9.3825C28.0852 10.6445 34.0331 11.211 39.9853 11.07C39.9853 10.5047 39.9262 9.93937 39.8925 9.3825C34.0842 9.51454 28.2808 8.95657 22.6041 7.72031Z" transform="translate(113.639 140.956)" fill="#F99E35"/>
<path opacity="0.5" d="M0.565311 2.025C6.38309 4.91658 12.5561 7.03004 18.9253 8.31094L19.3303 6.67407C13.0688 5.41847 7.00043 3.34178 1.28249 0.49781L0.210937 0C0.143437 0.582188 0.0675 1.17281 0 1.76343L0.565311 2.025Z" transform="translate(108.059 178.165)" fill="#F99E35"/>
<path opacity="0.5" d="M0.919684 2.19375C6.80189 5.11047 13.0433 7.23822 19.4822 8.52188C19.6087 7.98188 19.7437 7.43343 19.8703 6.87656C13.5478 5.62009 7.41957 3.53196 1.64531 0.66657L0.210938 0C0.143438 0.582187 0.0759375 1.17281 0 1.76343L0.919684 2.19375Z" transform="translate(108.627 173.44)" fill="#F99E35"/>
<path opacity="0.5" d="M1.27407 2.37094C7.20295 5.31093 13.4961 7.45027 19.9884 8.73282C20.115 8.19282 20.25 7.64437 20.3766 7.0875C13.997 5.83574 7.81371 3.73586 1.99125 0.84375L0.219383 0C0.143446 0.590625 0.0759375 1.17281 0 1.76344L1.27407 2.37094Z" transform="translate(109.185 168.698)" fill="#F99E35"/>
<path opacity="0.5" d="M1.9153 2.62408C7.90533 5.59712 14.268 7.75111 20.8322 9.02813C20.9503 8.46563 21.0684 7.91719 21.1866 7.38281C14.7459 6.1266 8.50278 4.01246 2.62405 1.09689C1.83936 0.734078 1.05468 0.362812 0.244682 0C0.160307 0.57375 0.0759375 1.15594 0 1.73812L1.9153 2.62408Z" transform="translate(110.378 159.324)" fill="#F99E35"/>
<path opacity="0.5" d="M1.60312 2.50594C7.57137 5.46358 13.9076 7.61157 20.4441 8.8931C20.5622 8.3531 20.6887 7.79624 20.8069 7.24781C14.3939 5.98723 8.17721 3.87905 2.32031 0.978753L0.21937 0C0.143433 0.582187 0.0759375 1.1728 0 1.75499L1.60312 2.50594Z" transform="translate(109.769 164.007)" fill="#F99E35"/>
<path opacity="0.5" d="M0.691881 0.138303H0L0.0675016 1.8258H0.759383C5.16873 1.54959 9.59404 1.67385 13.9809 2.19706L13.9303 0.509555C9.53727 -0.00680327 5.10697 -0.131046 0.691881 0.138303Z" transform="translate(136.842 245.881)" fill="#F99E35"/>
<path opacity="0.5" d="M1.77188 0.13823L0 0.205744L0.0675015 1.89324L1.84781 1.81728C5.9094 1.57222 9.98423 1.65972 14.0316 2.07887C14.0316 1.50512 14.0316 0.939807 14.0316 0.39137C9.95857 -0.0244239 5.85856 -0.109092 1.77188 0.13823Z" transform="translate(136.663 241.325)" fill="#F99E35"/>
<path opacity="0.5" d="M2.86031 0.132528L0 0.24222L0.0590558 1.92972C1.03781 1.92972 1.99125 1.87066 2.93625 1.82847C6.66145 1.60308 10.3982 1.65384 14.1159 1.98034C14.1159 1.40659 14.1159 0.84128 14.1159 0.292843C10.3729 -0.0336352 6.61111 -0.0872163 2.86031 0.132528Z" transform="translate(136.495 236.766)" fill="#F99E35"/>
<path opacity="0.5" d="M17.1788 7.66124C17.3222 7.1128 17.4572 6.5728 17.5922 6.02436C11.5724 4.75949 5.73755 2.73518 0.227816 0L0 1.75499C5.45794 4.43147 11.2289 6.41558 17.1788 7.66124Z" transform="translate(106.364 192.348)" fill="#F99E35"/>
<path opacity="0.5" d="M15.7697 5.23124C10.4473 4.08577 5.27467 2.33044 0.354373 0L0 1.6875C4.94567 4.00921 10.1402 5.75866 15.4828 6.90187C15.5841 6.33656 15.6769 5.78811 15.7697 5.23124Z" transform="translate(98.4902 238.628)" fill="#F99E35"/>
<path opacity="0.5" d="M0.202492 1.86468C5.95531 4.71639 12.0527 6.81219 18.3431 8.09998C18.4781 7.55998 18.6131 7.01154 18.7566 6.4631C12.5712 5.20068 6.57558 3.14167 0.919684 0.337495L0.202492 0L0 1.76343L0.202492 1.86468Z" transform="translate(107.503 182.891)" fill="#F99E35"/>
</g>
<path d="M2.73366 0L0.109601 8.61471C-0.0546017 9.1544 -0.033808 9.73347 0.168669 10.26L1.3921 13.4578C1.48277 13.6966 1.62646 13.9117 1.81233 14.0868C1.9982 14.262 2.2214 14.3927 2.46513 14.4691C2.70885 14.5454 2.96672 14.5655 3.21932 14.5277C3.47191 14.4899 3.71264 14.3953 3.92335 14.2509L6.30272 12.6394C6.5881 12.4464 6.83108 12.1972 7.01679 11.907C7.20249 11.6169 7.32701 11.2919 7.38272 10.9519L9.07022 0.312183L2.73366 0Z" transform="translate(93.5449 128.293)" fill="#95D1FE"/>
<path d="M2.03344 0.0506229L2.95312 7.37437C2.65048 7.41301 2.34313 7.38978 2.04974 7.30608C1.75635 7.22237 1.48302 7.07994 1.24633 6.88742C1.00963 6.69491 0.814495 6.45633 0.672775 6.18614C0.531055 5.91596 0.4457 5.61978 0.421875 5.31561L0 0L2.03344 0.0506229Z" transform="translate(100.569 128.537)" fill="#95D1FE"/>
<path d="M270 0H0V219.375H270V0Z" transform="translate(466.592 219.375) rotate(180)" fill="#D4EEFF"/>
<path d="M249.75 0H0V15.1875H249.75V0Z" transform="translate(206.719 219.24)" fill="#95D1FE"/>
<path opacity="0.5" d="M0 3.29907C9.48375 2.07563 24.5447 3.29906 42.4912 4.19344C63.6272 5.28188 80.3841 0.624382 106.979 2.77594C133.574 4.92751 153.968 4.77564 182.765 3.51845C202.88 2.6747 230.462 2.24437 249.75 4.03312V0H0V3.29907Z" transform="translate(206.719 219.24)" fill="#56B4FC"/>
<path d="M5.0625 21.9375H15.1875L20.25 0H0L5.0625 21.9375Z" transform="translate(427.783 234.428)" fill="#56B4FC"/>
<path d="M15.1875 21.9375H5.0625L0 0H20.25L15.1875 21.9375Z" transform="translate(215.156 234.428)" fill="#56B4FC"/>
<path d="M232.875 182.25H0V0H232.875V182.25ZM3.375 178.875H229.5V3.375H3.375V178.875Z" transform="translate(215.156 18.4276)" fill="#56B4FC"/>
<path opacity="0.5" d="M39.6563 79.3125C61.5578 79.3125 79.3125 61.5578 79.3125 39.6563C79.3125 17.7547 61.5578 0 39.6563 0C17.7547 0 0 17.7547 0 39.6563C0 61.5578 17.7547 79.3125 39.6563 79.3125Z" transform="translate(291.938 72.427)" fill="#95D1FE"/>
<path d="M39.6563 79.3125C61.5578 79.3125 79.3125 61.5578 79.3125 39.6563C79.3125 17.7547 61.5578 0 39.6563 0C17.7547 0 0 17.7547 0 39.6563C0 61.5578 17.7547 79.3125 39.6563 79.3125Z" transform="translate(291.938 69.8964)" fill="#153363"/>
<path d="M65.8125 32.0625H39.3188L64.9097 25.2028L64.471 23.5744L38.88 30.4341L61.8216 17.1872L60.9778 15.7191L38.0363 28.9744L56.7675 10.2347L55.5778 9.045L36.8466 27.7763L50.0935 4.8347L48.6253 3.99095L35.3784 26.9325L42.2381 1.34156L40.6097 0.902819L33.75 26.4938V0H32.0625V26.4938L25.2028 0.902819L23.5744 1.34156L30.4341 26.9325L17.1872 3.99095L15.7191 4.8347L28.9659 27.7763L10.2347 9.045L9.045 10.2347L27.7763 28.9744L4.8347 15.7191L3.99095 17.1872L26.9325 30.4341L1.34156 23.5744L0.902819 25.2028L26.4938 32.0625H0V33.75H26.4938L0.902819 40.6097L1.34156 42.2381L26.9325 35.3784L3.99095 48.6253L4.8347 50.0935L27.7763 36.8381L9.045 55.5778L10.2347 56.7675L28.9744 38.0363L15.7191 60.9778L17.1872 61.8216L30.4341 38.88L23.5744 64.471L25.2028 64.9097L32.0625 39.3188V65.8125H33.75V39.3188L40.6097 64.9097L42.2381 64.471L35.3784 38.88L48.6253 61.8216L50.0935 60.9778L36.8381 38.0363L55.5778 56.7675L56.7675 55.5778L38.0363 36.8381L60.9778 50.0935L61.8216 48.6253L38.88 35.3784L64.471 42.2381L64.9097 40.6097L39.3188 33.75H65.8125V32.0625Z" transform="translate(298.687 76.6458)" fill="white"/>
<path d="M26.1563 52.3125C40.602 52.3125 52.3125 40.602 52.3125 26.1563C52.3125 11.7106 40.602 0 26.1563 0C11.7106 0 0 11.7106 0 26.1563C0 40.602 11.7106 52.3125 26.1563 52.3125Z" transform="translate(305.439 83.3962)" fill="#153363"/>
<path d="M25.3125 3.375V0H0V3.375C0 6.73164 1.33343 9.95081 3.70693 12.3243C6.08044 14.6978 9.2996 16.0312 12.6562 16.0312C16.0129 16.0312 19.2321 14.6978 21.6056 12.3243C23.9791 9.95081 25.3125 6.73164 25.3125 3.375Z" transform="translate(318.936 109.552)" fill="#1F2833"/>
<path d="M12.6562 25.3125C19.6461 25.3125 25.3125 19.6461 25.3125 12.6562C25.3125 5.6664 19.6461 0 12.6562 0C5.6664 0 0 5.6664 0 12.6562C0 19.6461 5.6664 25.3125 12.6562 25.3125Z" transform="translate(318.936 96.896)" fill="white"/>
<path d="M5.0625 16.875C7.85844 16.875 10.125 13.0974 10.125 8.4375C10.125 3.7776 7.85844 0 5.0625 0C2.26656 0 0 3.7776 0 8.4375C0 13.0974 2.26656 16.875 5.0625 16.875Z" transform="translate(127.407 37.8337)" fill="#95D1FE"/>
<path opacity="0.5" d="M9.96562 6.33656C9.40031 2.69999 7.43437 0 5.06343 0C2.27062 0 0.000929351 3.78 0.000929351 8.4375C-0.0214853 10.2623 0.361814 12.0693 1.12312 13.7278C0.802494 11.88 0.869994 10.3528 1.96687 9.18843C3.65437 7.37437 0.912184 4.04156 5.17312 5.13C6.75094 5.52656 8.43843 5.99906 9.96562 6.33656Z" transform="translate(127.406 37.8337)" fill="#56B4FC"/>
<path d="M0.00299044 10.8437C0.627366 6.67559 2.433 5.23278 2.433 5.23278C4.64587 6.47442 7.1203 7.17686 9.6555 7.28309C11.1911 7.28309 11.8999 4.8109 10.3221 2.56653C9.03955 0.752466 5.65611 -0.867533 2.7283 0.524655C-0.199513 1.91684 0.00299044 9.88184 0.00299044 10.8437Z" transform="translate(127.404 35.4274)" fill="#153363"/>
<path d="M35.3953 48.5663C35.2519 38.5763 38.2641 37.1334 38.2641 23.625C38.2641 10.1166 26.8312 0 26.8312 0H25.92L25.4813 10.125C25.4757 10.2887 25.4227 10.4473 25.3286 10.5814C25.2345 10.7154 25.1034 10.8192 24.9513 10.8801C24.7992 10.9409 24.6327 10.9561 24.4721 10.9239C24.3115 10.8918 24.1638 10.8135 24.0469 10.6987L13.1288 0.00843287H12.285C12.285 0.00843287 3.8475 9.64406 6.53906 25.9706C9.23063 42.2972 0 75.2625 0 75.2625C9.94781 74.52 31.7672 84.4678 39.6563 78.6797C38.7113 74.25 35.5472 58.5563 35.3953 48.5663Z" transform="translate(114.203 57.6111)" fill="#315CE8"/>
<path d="M0 0H14.58L14.0738 11.8125C14.0682 11.9762 14.0152 12.1348 13.9211 12.2689C13.827 12.4029 13.6959 12.5067 13.5438 12.5676C13.3917 12.6284 13.2252 12.6437 13.0646 12.6115C12.904 12.5793 12.7563 12.501 12.6394 12.3863L0 0Z" transform="translate(126.45 57.6453)" fill="white"/>
<path d="M31.1934 0C23.3381 0 7.19719 30.9825 4.82625 39.7744C2.45531 48.5662 0 70.6725 0 70.6725L7.93969 70.9678L14.9259 47.3428L28.4259 20.1319C28.4259 20.1319 30.24 6.345 31.1934 0Z" transform="translate(95.2598 57.6453)" fill="#315CE8"/>
<path d="M4.78405 22.7137L9.43312 14.9428V0L7.56844 2.17688C7.06247 2.76678 6.70643 3.47015 6.53062 4.22718L4.32 13.8628L0 20.9756L4.78405 22.7137Z" transform="translate(187.161 35.2264)" fill="#95D1FE"/>
<path d="M0 6.82593C6.75 6.82593 32.9063 27.6835 32.9063 27.6835L47.79 0C47.79 0 51.7894 2.6325 54.1435 3.93188C51.3844 13.0275 42.4322 38.9644 35.8088 39.8081C27.1181 40.9303 5.55188 27.405 5.55188 27.405L0 6.82593Z" transform="translate(141.031 50.8189)" fill="#315CE8"/>
<path d="M1.32469 2.64939C2.0563 2.64939 2.64938 2.0563 2.64938 1.32469C2.64938 0.593089 2.0563 0 1.32469 0C0.593089 0 0 0.593089 0 1.32469C0 2.0563 0.593089 2.64939 1.32469 2.64939Z" transform="translate(140.258 85.2944)" fill="#153363"/>
<path d="M1.32468 2.64936C2.05629 2.64936 2.64938 2.05627 2.64938 1.32467C2.64938 0.593063 2.05629 0 1.32468 0C0.593076 0 0 0.593063 0 1.32467C0 2.05627 0.593076 2.64936 1.32468 2.64936Z" transform="translate(139.522 102.81)" fill="#153363"/>
<path d="M1.32468 2.64939C2.05629 2.64939 2.64938 2.0563 2.64938 1.32469C2.64938 0.593089 2.05629 0 1.32468 0C0.593076 0 0 0.593089 0 1.32469C0 2.0563 0.593076 2.64939 1.32468 2.64939Z" transform="translate(141.303 120.125)" fill="#153363"/>
<path opacity="0.5" d="M8.31093 33.5644C7.37437 24.8738 8.56405 22.0388 9.99843 12.6563C11.4328 3.27375 6.46312 0.050625 6.40406 0C6.40406 0.320625 6.48844 0.624371 6.53906 0.944996C9.21375 17.2716 0 50.2369 0 50.2369C2.27799 50.1589 4.55733 50.3457 6.79219 50.7938C8.79188 45.8241 9.0028 40.2131 8.31093 33.5644Z" transform="translate(114.184 82.6534)" fill="#153363"/>
<path opacity="0.5" d="M18.1069 19.229C22.2244 7.19718 28.3247 5.88093 31.1934 0C23.3381 0 7.19719 30.9825 4.82625 39.7744C2.45531 48.5662 0 70.6725 0 70.6725L4.3622 70.8328C6.0497 63.8381 3.75469 60.5728 4.68282 56.6493C5.94 51.3759 6.23532 38.8462 8.70751 35.3869C11.1797 31.9275 13.9809 31.2609 18.1069 19.229Z" transform="translate(95.2598 57.6453)" fill="#153363"/>
<path opacity="0.5" d="M25.3547 36.3741C31.9781 35.5303 40.9303 9.59344 43.6894 0.49781L42.8456 0C42.285 1.48007 41.6428 2.92791 40.9219 4.33688C38.8041 8.48813 37.6228 16.1494 35.3109 18.4781C32.9991 20.8069 31.4466 28.4259 28.8056 29.7506C26.1647 31.0753 24.7303 36.0112 20.8997 33.885C14.3353 30.2569 10.0406 31.2103 6.31971 27.8606C4.35801 26.0479 2.24359 24.4078 0 22.9584C0.616375 24.3812 0.9626 25.9062 1.02096 27.4556C8.02408 31.3622 19.5581 37.125 25.3547 36.3741Z" transform="translate(151.445 54.2532)" fill="#153363"/>
<path opacity="0.5" d="M9.2896 2.17689L9.05335 0.295318L2.73366 0L0.109601 8.61471C-0.0546017 9.15441 -0.033808 9.73347 0.168669 10.26L0.767725 11.8294C1.40897 10.7494 2.37085 9.80439 2.57335 8.50502C2.75054 7.34064 2.39617 6.74157 3.29054 5.72907C4.18492 4.71657 4.72491 4.53095 5.1721 3.30751C5.36143 2.90393 5.67235 2.56976 6.06125 2.35186C6.45014 2.13395 6.89749 2.04326 7.34054 2.09251C7.98568 2.18679 8.63874 2.21507 9.2896 2.17689Z" transform="translate(93.5449 128.293)" fill="#56B4FC"/>
<path opacity="0.7" d="M6.10874 67.2553C6.10874 60.615 7.21406 54.8606 5.13844 48.6928C3.06281 42.525 3.45093 30.7631 3.89812 21.6928C4.34531 12.6225 3.23156 5.08781 0 0L3.49313 92.2894H6.6825C4.64062 82.1644 6.10874 72.3769 6.10874 67.2553Z" transform="translate(133.474 157.325)" fill="#F99E35"/>
<path opacity="0.3" d="M0.793127 3.40031C3.40031 2.41312 4.86842 1.77187 8.58092 3.40031C13.6856 5.61938 14.8837 6.97783 14.5378 8.3447C14.1919 9.71158 11.7872 15.795 10.319 21.9375H15.1875L20.25 0H0L0.793127 3.40031Z" transform="translate(427.783 234.453)" fill="#315CE8"/>
<path opacity="0.3" d="M5.0625 21.9375H8.11687C7.99811 19.1582 7.53906 16.4039 6.75 13.7363C5.44219 9.73688 3.87282 5.70376 5.4422 4.91063C7.01157 4.11751 6.48844 2.55657 10.125 1.77188C13.0191 1.14751 15.9722 1.84782 19.6931 2.43L20.25 0H0L5.0625 21.9375Z" transform="translate(215.156 234.428)" fill="#315CE8"/>
<path opacity="0.5" d="M0 0C0.0681941 3.17936 1.33079 6.21654 3.53658 8.50728C5.74236 10.798 8.72968 12.1744 11.9042 12.3627C15.0787 12.5509 18.2077 11.5372 20.6688 9.52314C23.1298 7.50913 24.7425 4.64245 25.1859 1.49343C24.5217 2.52272 23.6559 3.40694 22.6409 4.09281C21.6259 4.77869 20.4825 5.25204 19.2797 5.48438C13.6688 6.32813 13.6688 9.93938 7.19719 8.07469C2.05875 6.61501 1.49344 2.84344 0 0Z" transform="translate(318.936 109.688)" fill="#D4EEFF"/>
</svg>
