<svg width="376" height="297" viewBox="0 0 376 297" fill="none" xmlns="http://www.w3.org/2000/svg">
<path opacity="0.1" d="M188 6.26667C291.83 6.26667 376 4.86383 376 3.13333C376 1.40284 291.83 0 188 0C84.1705 0 0 1.40284 0 3.13333C0 4.86383 84.1705 6.26667 188 6.26667Z" transform="translate(0 289.838)" fill="#315CE8"/>
<path d="M22.278 4.14384C22.8577 12.2905 33.5737 16.0035 30.7145 27.4323C27.8553 38.8612 0 34.1533 0 34.1533L14.288 0L22.278 4.14384Z" transform="translate(117.195 6.82761)" fill="#153363"/>
<path d="M4.7 15.6667C7.29574 15.6667 9.4 12.1596 9.4 7.83334C9.4 3.5071 7.29574 0 4.7 0C2.10426 0 0 3.5071 0 7.83334C0 12.1596 2.10426 15.6667 4.7 15.6667Z" transform="translate(132.381 2.35474)" fill="#95D1FE"/>
<path opacity="0.5" d="M8.86023 4.19867C8.0769 1.70767 6.51023 0 4.70073 0C2.1079 0 0.000733793 3.50933 0.000733793 7.83333C-0.0170014 9.40319 0.286919 10.9601 0.893745 12.408C1.67708 10.8413 0.674412 10.6063 3.24375 10.058C5.60158 9.54883 7.78707 8.131 8.86023 4.19867Z" transform="translate(132.38 2.35474)" fill="#56B4FC"/>
<path d="M28.8597 18.4601C28.8597 11.5511 39.4504 10.1567 39.4504 4.50107C39.4504 -2.47843 22.6244 -3.33226 21.5355 16.6036C20.5877 33.7586 0.142721 35.3174 0.00172121 48.0387C-0.139279 60.7601 8.43039 58.3474 8.14056 68.6326C7.85073 78.9177 17.1175 89.2421 31.993 82.2234L28.8597 18.4601Z" transform="translate(101.047)" fill="#153363"/>
<path d="M59.972 119.944C93.0936 119.944 119.944 93.0936 119.944 59.972C119.944 26.8504 93.0936 0 59.972 0C26.8504 0 0 26.8504 0 59.972C0 93.0936 26.8504 119.944 59.972 119.944Z" transform="translate(173.288 14.747)" fill="#FFD066"/>
<g opacity="0.5">
<path opacity="0.5" d="M107.567 3.66007C101.058 5.8064 84.9525 3.94991 75.717 3.51125C66.2778 3.06475 57.0658 4.42774 45.5038 1.27091C33.9418 -1.88592 25.4348 1.59991 15.369 3.51125C6.89333 5.07791 4.92717 4.50607 0 3.8559C4.97188 13.8818 12.6495 22.3167 22.1648 28.2071C31.6801 34.0975 42.6536 37.2084 53.8445 37.188C65.0355 37.1676 75.9976 34.0168 85.4913 28.0918C94.9851 22.1668 102.632 13.704 107.567 3.66007Z" transform="translate(179.531 97.5121)" fill="#F99E35"/>
</g>
<path opacity="0.3" d="M59.9799 3.91667C71.0688 3.91512 81.9091 7.20204 91.1298 13.3617C100.351 19.5215 107.538 28.2773 111.782 38.5218C116.026 48.7663 117.137 60.0394 114.974 70.9153C112.811 81.7912 107.471 91.7814 99.6303 99.6225C91.7893 107.464 81.7991 112.803 70.9231 114.966C60.0472 117.129 48.7742 116.018 38.5296 111.774C28.2851 107.53 19.5293 100.343 13.3696 91.122C7.20991 81.9012 3.92297 71.0609 3.92452 59.972C3.94318 45.1109 9.85499 30.8639 20.3634 20.3555C30.8717 9.84712 45.1188 3.93532 59.9799 3.91667ZM59.9799 5.11628e-07C48.1166 6.12799e-07 36.5198 3.51796 26.656 10.109C16.7922 16.7 9.10448 26.068 4.56497 37.0284C0.0254727 47.9887 -1.16188 60.049 1.15309 71.6842C3.46807 83.3194 9.18137 94.0067 17.5705 102.395C25.9596 110.783 36.6477 116.495 48.2832 118.808C59.9186 121.122 71.9788 119.933 82.9386 115.392C93.8983 110.851 103.265 103.162 109.855 93.2971C116.445 83.4325 119.961 71.8352 119.96 59.972C119.96 52.0957 118.408 44.2966 115.394 37.0199C112.379 29.7433 107.961 23.1316 102.392 17.5626C96.8218 11.9936 90.2096 7.57626 82.9326 4.56285C75.6555 1.54943 67.8562 -0.00102826 59.9799 5.11628e-07Z" transform="translate(173.283 14.747)" fill="white"/>
<path opacity="0.5" d="M46.5065 93.013C72.1914 93.013 93.013 72.1914 93.013 46.5065C93.013 20.8217 72.1914 0 46.5065 0C20.8217 0 0 20.8217 0 46.5065C0 72.1914 20.8217 93.013 46.5065 93.013Z" transform="translate(186.755 28.2125)" fill="#F99E35"/>
<path opacity="0.5" d="M46.5065 1.974C55.318 1.97245 63.932 4.58404 71.2591 9.47846C78.5862 14.3729 84.2973 21.3303 87.67 29.4707C91.0427 37.6111 91.9256 46.5689 90.2069 55.2112C88.4883 63.8534 84.2453 71.7918 78.0147 78.0225C71.784 84.2531 63.8456 88.4961 55.2033 90.2147C46.5611 91.9334 37.6033 91.0505 29.4629 87.6778C21.3225 84.3051 14.3651 78.594 9.47064 71.2669C4.57622 63.9398 1.96465 55.3258 1.9662 46.5143C1.98071 34.706 6.67798 23.3854 15.0278 15.0356C23.3776 6.6858 34.6981 1.98851 46.5065 1.974ZM46.5065 0.0156707C37.3081 0.0156708 28.3162 2.74342 20.6681 7.85396C13.02 12.9645 7.0591 20.2283 3.53937 28.7267C0.0196282 37.2251 -0.900894 46.5764 0.894205 55.598C2.6893 64.6196 7.1194 72.9062 13.6242 79.41C20.1291 85.9137 28.4165 90.3424 37.4384 92.136C46.4602 93.9296 55.8114 93.0075 64.3092 89.4863C72.807 85.9651 80.0698 80.0031 85.1791 72.3541C90.2883 64.7051 93.0146 55.7128 93.013 46.5143C93.0151 40.4061 91.8136 34.3572 89.4773 28.7134C87.1409 23.0696 83.7155 17.9415 79.3967 13.6219C75.0778 9.30235 69.9502 5.87604 64.3068 3.53875C58.6634 1.20145 52.6148 -0.00102871 46.5065 6.60323e-07V0.0156707Z" transform="translate(186.755 28.2048)" fill="#F99E35"/>
<path d="M13.2148 0L10.2695 9.54883C10.217 9.72064 10.1231 9.87693 9.99611 10.004C9.86908 10.131 9.7128 10.2249 9.54099 10.2773L0 13.2227L9.54099 16.1602C9.7128 16.2126 9.86908 16.3065 9.99611 16.4335C10.1231 16.5606 10.217 16.7169 10.2695 16.8887L13.2148 26.4375L16.1602 16.8887C16.2139 16.7175 16.3081 16.5618 16.435 16.435C16.5618 16.3081 16.7175 16.2139 16.8887 16.1602L26.4375 13.2227L16.8887 10.2773C16.7175 10.2236 16.5618 10.1294 16.435 10.0025C16.3081 9.87566 16.2139 9.72001 16.1602 9.54883L13.2148 0Z" transform="translate(264.035 15.6714)" fill="white"/>
<path opacity="0.5" d="M4.74269 0.155051L3.66169 3.64872L0.168007 4.72972C0.119784 4.74272 0.0771808 4.77125 0.0468068 4.8109C0.0164329 4.85055 0 4.89911 0 4.94905C0 4.999 0.0164329 5.04755 0.0468068 5.0872C0.0771808 5.12685 0.119784 5.15538 0.168007 5.16839L3.66169 6.24939L4.74269 9.74305C4.7557 9.79127 4.78423 9.83388 4.82388 9.86425C4.86353 9.89462 4.91206 9.91108 4.962 9.91108C5.01195 9.91108 5.06053 9.89462 5.10018 9.86425C5.13982 9.83388 5.16836 9.79127 5.18136 9.74305L6.26236 6.24939L9.756 5.16839C9.80422 5.15538 9.84682 5.12685 9.8772 5.0872C9.90757 5.04755 9.92405 4.999 9.92405 4.94905C9.92405 4.89911 9.90757 4.85055 9.8772 4.8109C9.84682 4.77125 9.80422 4.74272 9.756 4.72972L6.26236 3.64872L5.17352 0.155051C5.1584 0.109886 5.12946 0.0706207 5.0908 0.0427967C5.05215 0.0149727 5.00571 0 4.95808 0C4.91045 0 4.86406 0.0149727 4.82541 0.0427967C4.78675 0.0706207 4.75781 0.109886 4.74269 0.155051Z" transform="translate(284.658 10.6362)" fill="#FFD066"/>
<path opacity="0.5" d="M1.47267 2.94533C2.286 2.94533 2.94534 2.28599 2.94534 1.47266C2.94534 0.659327 2.286 0 1.47267 0C0.659339 0 0 0.659327 0 1.47266C0 2.28599 0.659339 2.94533 1.47267 2.94533Z" transform="translate(287.521 39.0147)" fill="#FFD066"/>
<path opacity="0.5" d="M1.47267 2.94533C2.286 2.94533 2.94532 2.286 2.94532 1.47267C2.94532 0.659339 2.286 0 1.47267 0C0.659339 0 0 0.659339 0 1.47267C0 2.286 0.659339 2.94533 1.47267 2.94533Z" transform="translate(262.449 14.935)" fill="#FFD066"/>
<path d="M0 0H263.2C264.862 0 266.456 0.660231 267.631 1.83546C268.807 3.01069 269.467 4.60464 269.467 6.26667V181.733C269.467 183.395 268.807 184.989 267.631 186.165C266.456 187.34 264.862 188 263.2 188H0V0Z" transform="translate(54.0488 104.971)" fill="#D4EEFF"/>
<path opacity="0.3" d="M269.467 13.6848V0C267.994 8.05267 264.117 16.0192 253.8 15.4552C245.113 15.5257 215.033 12.3923 196.225 16.8182C177.417 21.244 156.463 17.9462 132.712 14.664C108.962 11.3818 82.4929 14.1 57.6064 16.8182C36.5347 19.1212 15.3063 13.7397 0 12.2905V19.9515H263.2C264.862 19.9515 266.456 19.2913 267.631 18.116C268.807 16.9408 269.467 15.3469 269.467 13.6848Z" transform="translate(54.0488 273.02)" fill="#A9D4FD"/>
<path d="M5.94994 11.1782L9.92145 2.74951L4.28928 0L0.317772 8.42867C0.137184 8.79848 0.0312231 9.20022 0.00592533 9.61099C-0.0193725 10.0218 0.036502 10.4335 0.170347 10.8227C0.304192 11.2118 0.513379 11.5708 0.785984 11.8791C1.05859 12.1874 1.38925 12.439 1.7591 12.6195C2.12891 12.8001 2.53068 12.9061 2.94144 12.9314C3.35221 12.9567 3.76392 12.9008 4.15309 12.7669C4.54226 12.6331 4.90126 12.4239 5.20957 12.1513C5.51787 11.8787 5.76945 11.548 5.94994 11.1782Z" transform="translate(108.88 160.901)" fill="#153363"/>
<path d="M4.7 0H0V3.13333H4.7V0Z" transform="translate(54.0488 119.071)" fill="#A9D4FD"/>
<path d="M231.71 3.13333H222.185V0H231.71V3.13333ZM215.84 3.13333H206.314V0H215.84V3.13333ZM199.969 3.13333H190.444V0H199.969V3.13333ZM184.099 3.13333H174.605V0H184.13L184.099 3.13333ZM168.229 3.13333H158.703V0H168.229V3.13333ZM152.358 3.13333H142.833V0H152.358V3.13333ZM136.488 3.13333H126.963V0H136.488V3.13333ZM120.618 3.13333H111.092V0H120.618V3.13333ZM104.747 3.13333H95.222V0H104.747V3.13333ZM88.877 3.13333H79.3516V0H88.877V3.13333ZM73.0066 3.13333H63.4813V0H73.0066V3.13333ZM57.105 3.13333H47.611V0H57.105V3.13333ZM41.2346 3.13333H31.7407V0H41.266L41.2346 3.13333ZM25.3643 3.13333H15.8703V0H25.3957L25.3643 3.13333ZM9.494 3.13333H0V0H9.52532L9.494 3.13333Z" transform="translate(65.0947 119.071)" fill="#A9D4FD"/>
<path d="M6.26667 6.26667H3.13333V3.13333H0V0H6.26667V6.26667Z" transform="translate(303.149 119.071)" fill="#A9D4FD"/>
<path d="M3.13333 134.733H0V125.333H3.13333V134.733ZM3.13333 119.067H0V109.667H3.13333V119.067ZM3.13333 103.4H0V94.0001H3.13333V103.4ZM3.13333 87.7334H0V78.3334H3.13333V87.7334ZM3.13333 72.0667H0V62.6667H3.13333V72.0667ZM3.13333 56.4H0V47H3.13333V56.4ZM3.13333 40.7334H0V31.3334H3.13333V40.7334ZM3.13333 25.0667H0V15.6667H3.13333V25.0667ZM3.13333 9.40001H0V0H3.13333V9.40001Z" transform="translate(306.281 131.605)" fill="#A9D4FD"/>
<path d="M6.26667 6.26667H0V3.13333H3.13333V0H6.26667V6.26667Z" transform="translate(303.149 272.605)" fill="#A9D4FD"/>
<path d="M231.71 3.13333H222.185V0H231.71V3.13333ZM215.84 3.13333H206.314V0H215.84V3.13333ZM199.969 3.13333H190.444V0H199.969V3.13333ZM184.099 3.13333H174.605V0H184.13L184.099 3.13333ZM168.229 3.13333H158.703V0H168.229V3.13333ZM152.358 3.13333H142.833V0H152.358V3.13333ZM136.488 3.13333H126.963V0H136.488V3.13333ZM120.618 3.13333H111.092V0H120.618V3.13333ZM104.747 3.13333H95.222V0H104.747V3.13333ZM88.877 3.13333H79.3516V0H88.877V3.13333ZM73.0066 3.13333H63.4813V0H73.0066V3.13333ZM57.105 3.13333H47.611V0H57.105V3.13333ZM41.2346 3.13333H31.7407V0H41.266L41.2346 3.13333ZM25.3643 3.13333H15.8703V0H25.3957L25.3643 3.13333ZM9.494 3.13333H0V0H9.52532L9.494 3.13333Z" transform="translate(65.0947 275.738)" fill="#A9D4FD"/>
<path d="M4.7 0H0V3.13333H4.7V0Z" transform="translate(54.0488 275.738)" fill="#A9D4FD"/>
<path d="M7.76284 9.18851L6.19617 0L0 0.963509L1.56667 10.152C1.62968 10.559 1.77231 10.9495 1.98637 11.3013C2.20044 11.6531 2.48177 11.9593 2.81424 12.2022C3.14672 12.4452 3.52384 12.6203 3.92403 12.7174C4.32422 12.8146 4.73963 12.8319 5.1465 12.7684C5.55346 12.7053 5.94401 12.5627 6.29581 12.3486C6.6476 12.1346 6.95376 11.8533 7.19675 11.5208C7.43975 11.1883 7.61481 10.8112 7.71194 10.411C7.80908 10.0108 7.82637 9.59539 7.76284 9.18851Z" transform="translate(129.139 175.174)" fill="#153363"/>
<path d="M0 20.7662L3.36835 44.2584L12.267 42.5585L13.3323 0L0 20.7662Z" transform="translate(124.738 133.806)" fill="#56B4FC"/>
<path opacity="0.3" d="M4.0655 0L0 6.33716L3.36835 29.8372L4.89583 29.5473C4.57467 27.0015 4.2535 24.3303 4.1125 21.9412C3.84617 15.9722 4.02635 10.8413 4.03418 6.59565L4.0655 0Z" transform="translate(124.738 148.235)" fill="#315CE8"/>
<path opacity="0.3" d="M12.7527 0L0 19.8653L1.07316 27.3305C2.85133 25.6698 3.16467 22.9438 4.89583 21.2283C6.92467 19.2073 8.50701 18.5258 10.4653 16.5283C12.2278 14.6953 10.8883 8.64801 13.1443 6.59568L13.2854 0.91651C13.1287 0.556177 12.9407 0.266333 12.7527 0Z" transform="translate(124.738 134.738)" fill="#315CE8"/>
<path d="M11.4915 0H42.5428C42.5428 0 47.9557 1.91133 47.9557 10.7238C47.9557 20.4607 9.9405 77.268 9.9405 77.268L0 72.7482L12.22 49.2012C12.22 49.2012 7.10484 17.8287 7.10484 10.7238C7.10484 3.619 11.4915 0 11.4915 0Z" transform="translate(110.107 88.5685)" fill="#56B4FC"/>
<path opacity="0.3" d="M1.77129 12.1426L8.03795 0.000981235C8.03795 0.000981235 6.71411 -0.147852 4.70094 3.22048C2.68778 6.58882 1.63028 3.47115 0.345613 4.00382C-0.939053 4.53648 1.77129 12.1426 1.77129 12.1426Z" transform="translate(133.331 101.022)" fill="#315CE8"/>
<path opacity="0.3" d="M35.438 0H4.38667C4.38667 0 0 3.619 0 10.7238C0 17.8287 5.11517 49.2012 5.11517 49.2012L7.52782 43.146C6.29106 39.4197 5.50218 35.5594 5.17782 31.6467C4.59032 24.9727 5.83584 21.9177 4.58251 14.1783C3.54851 7.83334 5.75751 8.13101 7.84118 4.44934C10.8178 5.74184 12.5412 6.58784 18.518 4.90368C25.568 2.91401 24.0013 2.47534 30.8085 2.55368C33.0246 2.64515 35.2237 2.13058 37.1692 1.06533C36.6554 0.616408 36.0703 0.256353 35.438 0Z" transform="translate(117.21 88.5685)" fill="#315CE8"/>
<path d="M11.0261 0V4.62166C11.0261 5.03717 10.861 5.43566 10.5672 5.72946C10.2734 6.02327 9.87492 6.18833 9.45941 6.18833H6.60807L5.82473 9.05533C5.75802 9.30252 5.63174 9.5296 5.45695 9.71669C5.28215 9.90377 5.06417 10.0452 4.82207 10.1285L2.75408 10.8413C2.39267 10.9691 1.99693 10.96 1.64181 10.8156C1.28669 10.6713 0.996805 10.4017 0.827064 10.058L0.310085 8.97699C-0.0464734 8.23628 -0.0976672 7.38512 0.16756 6.60702C0.432788 5.82892 0.993189 5.18622 1.72792 4.81749L6.81958 2.6555L5.98925 0.0156581L11.0261 0Z" transform="translate(99.7002 98.7832)" fill="#95D1FE"/>
<path opacity="0.5" d="M0.830332 2.63983C1.44916 2.0445 0.109666 0.814659 1.786 0.751993C3.102 0.704993 3.86182 1.27683 5.02899 1.1515V0H0L0.830332 2.63983Z" transform="translate(105.705 98.7832)" fill="#56B4FC"/>
<path d="M6.26667 0H56.4V73.6333H6.26667C4.60464 73.6333 3.01069 72.9731 1.83546 71.7978C0.660232 70.6226 0 69.0287 0 67.3666V6.26666C0 4.60464 0.660232 3.01069 1.83546 1.83546C3.01069 0.660231 4.60464 0 6.26667 0Z" transform="translate(267.119 162.155)" fill="#56B4FC"/>
<path opacity="0.2" d="M5.48333 10.9667C8.51169 10.9667 10.9667 8.51169 10.9667 5.48333C10.9667 2.45497 8.51169 0 5.48333 0C2.45497 0 0 2.45497 0 5.48333C0 8.51169 2.45497 10.9667 5.48333 10.9667Z" transform="translate(284.351 195.055)" fill="#315CE8"/>
<path d="M5.48333 10.9667C8.51169 10.9667 10.9667 8.51169 10.9667 5.48333C10.9667 2.45497 8.51169 0 5.48333 0C2.45497 0 0 2.45497 0 5.48333C0 8.51169 2.45497 10.9667 5.48333 10.9667Z" transform="translate(284.351 193.488)" fill="white"/>
<path d="M68.9404 18.988C68.9404 18.988 50.6653 0 42.9729 0H26.3349C26.3349 0 8.26345 15.3847 1.20562 32.3438C-2.12355 40.3573 2.49811 75.2784 2.49811 75.2784H10.3314L10.7545 38.8142L20.9378 25.0432C22.2146 33.3152 21.964 47.3995 19.1283 65.0637C27.5648 69.0508 45.4169 65.0637 50.1796 65.0637C46.3726 41.3757 51.5426 29.8607 51.5426 20.5233C51.5426 20.2022 51.5426 19.8732 51.5426 19.552L63.4179 28.3723C64.3076 29.0284 65.3252 29.4901 66.4047 29.7276C67.4843 29.9652 68.6018 29.9731 69.6846 29.751L75.2698 28.576C76.9427 24.4511 79.0709 20.5258 81.6148 16.873L68.9404 18.988Z" transform="translate(102.47 23.5048)" fill="#315CE8"/>
<g opacity="0.5">
<path opacity="0.5" d="M8.33468 5.1465C14.1875 8.04837 20.4181 10.1156 26.8448 11.2878L27.4793 11.4132C27.5107 10.8909 27.5498 10.3687 27.5968 9.8465L27.1582 9.76034C20.8524 8.59636 14.7405 6.55556 9.00049 3.69733C6.0842 2.26986 3.07761 1.03477 0 0C0 0.548333 0.0626714 1.1045 0.0783381 1.67633C2.89757 2.66637 5.65468 3.8252 8.33468 5.1465Z" transform="translate(123.985 54.2741)" fill="#153363"/>
<path opacity="0.5" d="M0.00784098 1.62149C2.50177 2.53859 4.94642 3.58444 7.33199 4.75483C13.1902 7.65027 19.4225 9.71716 25.85 10.8962L27.1347 11.1468C27.1347 10.6063 27.1347 10.0815 27.1817 9.58016L26.1555 9.38433C19.853 8.22773 13.7419 6.20037 7.99783 3.36049C5.39889 2.08709 2.7285 0.965055 0 0C0.00783333 0.501333 0.00784098 1.05749 0.00784098 1.62149Z" transform="translate(124.135 58.9192)" fill="#153363"/>
<path opacity="0.5" d="M10.2695 4.10467C6.95939 2.46903 3.5256 1.09656 0 0C0.0705 0.548333 0.133183 1.11234 0.188016 1.69984C3.40925 2.74621 6.55075 4.02374 9.58801 5.5225C15.4432 8.41858 21.673 10.4855 28.0982 11.6638H28.2705C28.3253 11.139 28.388 10.6142 28.4507 10.0972C22.1416 8.95301 16.0225 6.93616 10.2695 4.10467Z" transform="translate(123.562 49.6681)" fill="#153363"/>
<path opacity="0.5" d="M5.05251 3.86967C10.9107 6.76511 17.143 8.832 23.5705 10.011C25.7717 10.4575 27.73 10.7943 29.516 11.0215C29.4298 10.481 29.3515 9.93266 29.2732 9.40782C27.6438 9.17282 25.8657 8.87516 23.876 8.47566C17.5735 7.31905 11.4624 5.29171 5.71832 2.45184C3.98716 1.6685 2.2325 0.814666 0.172334 0C0.117501 0.532666 0.0548333 1.07316 0 1.61366C1.8565 2.397 3.46234 3.11767 5.05251 3.86967Z" transform="translate(123.005 76.7244)" fill="#153363"/>
<path opacity="0.5" d="M4.98199 0.0783381C3.41532 0.141005 1.77817 0.211508 0 0.203674C1.38882 0.721807 2.89544 0.83853 4.34749 0.540502L6.91682 0L4.98199 0.0783381Z" transform="translate(167.79 52.7153)" fill="#153363"/>
<path opacity="0.5" d="M6.533 4.45717C12.3895 7.35853 18.6223 9.42822 25.051 10.6063C25.7952 10.7552 26.508 10.8883 27.2052 11.0137C27.2052 10.4732 27.2052 9.9405 27.2052 9.447L25.3878 9.09451C19.0844 7.94166 12.9728 5.91413 7.23018 3.07067C5.06034 2.05233 2.85133 1.01833 0.0469981 0C0.0469981 0.548334 0.047 1.08883 0 1.65283C2.491 2.5615 4.52766 3.51717 6.533 4.45717Z" transform="translate(124.081 63.4313)" fill="#153363"/>
<path opacity="0.5" d="M5.96118 4.20651C11.8164 7.10258 18.0462 9.16953 24.4713 10.3478C25.615 10.575 26.6803 10.7708 27.6987 10.9432C27.6595 10.4027 27.6282 9.86217 27.5968 9.3765C26.7038 9.21984 25.7717 9.04751 24.7847 8.85167C18.4818 7.69645 12.3706 5.66903 6.62702 2.82783C4.62952 1.88783 2.59284 0.932167 0.101837 0C0.101837 0.532667 0.0391667 1.08883 0 1.63716C2.24817 2.45966 4.12035 3.36834 5.96118 4.20651Z" transform="translate(123.806 67.9197)" fill="#153363"/>
<path opacity="0.5" d="M5.45983 4.04983C11.3158 6.95252 17.5488 9.02227 23.9778 10.199C25.5993 10.5202 27.1112 10.7865 28.4742 10.9823C28.4115 10.434 28.3488 9.89349 28.294 9.36866C27.0485 9.16499 25.7247 8.93 24.2833 8.64016C17.9795 7.48862 11.8678 5.46103 6.12567 2.61633C4.27701 1.74683 2.38916 0.8695 0.140994 0C0.104439 0.522222 0.0574444 1.06272 0 1.62149C2.02883 2.44399 3.76 3.25083 5.45983 4.04983Z" transform="translate(123.452 72.3064)" fill="#153363"/>
<path opacity="0.5" d="M9.74467 2.914C10.7787 3.1255 11.75 3.337 12.6744 3.5485L13.6927 2.17767C12.5568 1.91133 11.3427 1.645 10.0502 1.39433C6.94613 0.749948 3.80763 0.284404 0.65018 0C0.477847 0.383833 0.305518 0.783334 0.141018 1.1515C0.0940182 1.269 0.047 1.3865 0 1.51967C3.27387 1.78301 6.52832 2.24867 9.74467 2.914Z" transform="translate(103.562 54.7127)" fill="#153363"/>
<path opacity="0.5" d="M14.2645 6.439C20.1197 9.34184 26.353 11.4091 32.7825 12.5803C37.6342 13.6353 42.5832 14.1788 47.5483 14.2018C47.1566 13.8102 46.624 13.2697 45.9816 12.6352C41.6563 12.4939 37.3521 11.9697 33.1193 11.0685C26.8159 9.91566 20.7043 7.88813 14.9616 5.04467C10.6018 2.87833 6.02176 1.18705 1.30034 0L0 1.29251C4.93498 2.46029 9.72071 4.18694 14.2645 6.439Z" transform="translate(123.165 27.5781)" fill="#153363"/>
<path opacity="0.5" d="M6.54865 1.23767C6.81499 0.822502 7.08132 0.3995 7.33199 0L0 1.22201C2.01317 1.14368 4.09682 1.14367 6.54865 1.23767Z" transform="translate(176.752 40.3778)" fill="#153363"/>
<path opacity="0.5" d="M1.56667 0.305499L0 0C0.0626667 0.5875 0.125326 1.13583 0.187992 1.62933L1.269 1.84084C4.0655 2.40484 6.4155 2.98449 8.46783 3.57983V1.95833C6.47817 1.39433 4.22217 0.838166 1.56667 0.305499Z" transform="translate(104.388 93.8952)" fill="#153363"/>
<path opacity="0.5" d="M11.4915 5.67917C17.3475 8.58185 23.5805 10.6516 30.0095 11.8283C33.0856 12.4652 36.1951 12.9281 39.3233 13.2148C38.7123 12.643 38.07 12.0477 37.3964 11.4445C35.3284 11.1938 33.0097 10.8335 30.3464 10.293C24.042 9.13966 17.9301 7.10941 12.1887 4.26133C8.7064 2.54507 5.0881 1.11976 1.37083 0L0 1.23767C3.95621 2.36977 7.80229 3.85629 11.4915 5.67917Z" transform="translate(126.79 24.0922)" fill="#153363"/>
<path opacity="0.5" d="M0.524844 0H0C2.23291 0.912852 4.51614 1.69746 6.83851 2.35C4.40234 0.9165 2.20901 0 0.524844 0Z" transform="translate(144.916 23.5048)" fill="#153363"/>
<path opacity="0.5" d="M34.3648 13.0268V12.8858C34.3648 12.5647 34.3648 12.2357 34.3648 11.9145L36.4172 13.4342C42.5007 14.6977 48.7265 15.1377 54.9273 14.7423C56.8778 14.664 58.844 14.5857 61.1313 14.6405C61.4212 14.1157 61.7267 13.6065 62.0322 13.0738C59.3453 12.972 57.0815 13.0738 54.8647 13.16C42.0162 13.7519 29.2186 11.1833 17.5937 5.67917C12.4035 3.10922 6.91114 1.20124 1.2455 0L0 1.33166C5.8721 2.50265 11.5639 4.44382 16.9278 7.10484C22.4533 9.8399 28.3166 11.8312 34.3648 13.0268Z" transform="translate(119.645 31.1422)" fill="#153363"/>
<path opacity="0.5" d="M4.54332 2.0445C10.3956 4.94761 16.6265 7.01489 23.0535 8.18583C24.0092 8.38167 24.91 8.54617 25.7795 8.69501C24.9413 7.99784 24.0875 7.30067 23.2337 6.62701C16.9792 5.47086 10.9157 3.45145 5.217 0.626669L3.87749 0H0C1.63717 0.6815 3.09416 1.363 4.54332 2.0445Z" transform="translate(134.59 23.5048)" fill="#153363"/>
<path opacity="0.5" d="M3.48584 2.021C9.78989 3.17563 15.9016 5.20583 21.6435 8.05266C27.4052 10.9019 33.5305 12.9472 39.8482 14.1313C39.9265 13.6091 40.0049 13.0869 40.0832 12.5647C33.9138 11.404 27.9332 9.40081 22.3093 6.61133C16.4495 3.72671 10.2172 1.67038 3.79136 0.501333C2.85136 0.313333 1.96617 0.148833 1.1045 0C0.736336 0.462167 0.368167 0.924328 0 1.40216C1.13583 1.56666 2.24818 1.77033 3.48584 2.021Z" transform="translate(113.232 38.67)" fill="#153363"/>
<path opacity="0.5" d="M5.123 2.4675C6.8855 2.82783 8.47567 3.18816 9.92484 3.55633V1.94266C8.55401 1.60583 7.06567 1.26116 5.42068 0.932157C3.43101 0.532657 1.645 0.227167 0 0C0 0.532667 0.0861695 1.06533 0.125336 1.56667C1.66067 1.8095 3.30567 2.09933 5.123 2.4675Z" transform="translate(103.068 80.5706)" fill="#153363"/>
<path opacity="0.5" d="M7.34765 2.71816C8.48348 2.94532 9.54099 3.18033 10.5437 3.41533V1.84867C9.62716 1.63717 8.6715 1.4335 7.6375 1.222C4.71567 0.634498 2.209 0.250667 0 0L0.0704971 1.56667C2.19333 1.79383 4.57465 2.16199 7.34765 2.71816Z" transform="translate(102.553 71.8442)" fill="#153363"/>
<path opacity="0.5" d="M6.28232 2.60066C7.73149 2.89049 9.04749 3.18816 10.2773 3.48583V1.88C9.12583 1.60583 7.92732 1.33166 6.57215 1.09666C4.10465 0.595329 1.94267 0.250667 0 0C0 0.532667 0.0626705 1.06533 0.101837 1.56667C1.9505 1.80167 3.98716 2.13849 6.28232 2.60066Z" transform="translate(102.767 76.1996)" fill="#153363"/>
<path opacity="0.5" d="M8.32683 2.82783C9.165 2.99233 9.95616 3.16466 10.7238 3.337V1.77033L8.61666 1.32384C5.76893 0.73573 2.89294 0.293872 0 0C0 0.517 0 1.04967 0 1.56667C2.79506 1.84666 5.57421 2.26759 8.32683 2.82783Z" transform="translate(102.428 67.5046)" fill="#153363"/>
<path opacity="0.5" d="M9.18851 2.89833L10.7552 3.23517V1.6685L9.447 1.39433C6.34205 0.755 3.20384 0.289498 0.0469981 0C0.0469981 0.522222 0.0313333 1.04444 0 1.56667C3.0858 1.83428 6.15369 2.2789 9.18851 2.89833Z" transform="translate(102.413 63.1962)" fill="#153363"/>
<path opacity="0.5" d="M3.91666 2.31866C6.00816 2.74166 7.83334 3.1725 9.50967 3.61117V1.9975C7.94301 1.58234 6.17265 1.175 4.19865 0.783333C2.69465 0.477833 1.30817 0.235 0 0C0.0548333 0.5405 0.101835 1.081 0.148835 1.60584C1.37867 1.82517 2.6085 2.05233 3.91666 2.31866Z" transform="translate(103.397 84.9495)" fill="#153363"/>
<path opacity="0.5" d="M1.8565 0.352509L0.188016 0H0L0.0469981 0.383838L1.8565 0.352509Z" transform="translate(104.911 98.4306)" fill="#153363"/>
<path opacity="0.5" d="M9.02399 3.59551V1.974C7.23016 1.4805 5.21701 1.00267 2.92184 0.540502C1.89568 0.336835 0.924333 0.156667 0 0C0.0548333 0.556167 0.117501 1.09667 0.172334 1.62151C0.955668 1.76251 1.73901 1.90351 2.60851 2.07584C5.06818 2.56934 7.16749 3.07851 9.02399 3.59551Z" transform="translate(103.862 89.4223)" fill="#153363"/>
<path opacity="0.5" d="M9.69767 3.00017L10.6768 3.20383L11.703 1.81734L10.0423 1.4335C6.79268 0.754189 3.50429 0.275449 0.195833 0C0.1175 0.485667 0.0548334 1.0105 0 1.56667C3.25923 1.8423 6.49809 2.32106 9.69767 3.00017Z" transform="translate(102.757 58.8879)" fill="#153363"/>
<path opacity="0.5" d="M12.784 0.407337C8.51939 0.676892 4.23881 0.540497 0 0L2.49102 1.84867C5.93539 2.13969 9.39628 2.18158 12.8467 1.974C14.4134 1.91134 16.0348 1.84083 17.8052 1.84867C18.0402 1.32383 18.283 0.799001 18.5337 0.282C16.45 0.242834 14.6248 0.313337 12.784 0.407337Z" transform="translate(160.841 48.164)" fill="#153363"/>
<path opacity="0.5" d="M1.222 1.60582C7.52823 2.75766 13.6425 4.78522 19.3875 7.62966C25.0745 10.4498 31.1204 12.4792 37.3572 13.6613C37.4198 13.1287 37.4747 12.6117 37.5217 12.0947C31.4597 10.9326 25.5833 8.95363 20.0533 6.21183C14.1977 3.31023 7.96446 1.24304 1.53535 0.0704971L1.18284 0C0.791174 0.4465 0.3995 0.900826 0 1.36299L1.222 1.60582Z" transform="translate(116.339 34.8552)" fill="#153363"/>
<path opacity="0.5" d="M4.52767 3.62684L7.01085 4.77834C8.41301 4.88017 9.87784 4.91934 11.3583 4.89584C9.00834 4.00284 7.08917 3.09417 5.19351 2.20901C3.62684 1.47267 2.06017 0.736334 0.250673 0C0.172339 0.524834 0.0861667 1.0575 0 1.56667C1.63717 2.303 3.09417 2.95317 4.52767 3.62684Z" transform="translate(121.831 85.4351)" fill="#153363"/>
<path opacity="0.5" d="M7.27717 2.63983C9.87784 3.16466 12.0868 3.70516 14.0295 4.25349L15.0243 2.90616C12.9093 2.29516 10.481 1.68416 7.5905 1.10449C5.076 0.603158 2.89051 0.250667 0.91651 0C0.603177 0.485667 0.297667 0.97133 0 1.46483C2.115 1.70766 4.49634 2.05233 7.27717 2.63983Z" transform="translate(107.73 46.519)" fill="#153363"/>
<path opacity="0.5" d="M5.51467 2.43617C11.8169 3.57777 17.9286 5.59478 23.6723 8.42866C29.49 11.3107 35.6802 13.3697 42.065 14.5465C42.1433 14.0243 42.2217 13.502 42.3 12.9798C36.0655 11.8223 30.021 9.80834 24.3382 6.99516C18.4853 4.0933 12.2547 2.02608 5.828 0.85383C4.08117 0.50133 2.49101 0.219333 1.01835 0C0.673681 0.477833 0.336833 0.955664 0 1.44133C1.6685 1.7155 3.47801 2.021 5.51467 2.43617Z" transform="translate(110.349 42.4927)" fill="#153363"/>
<path opacity="0.5" d="M8.71066 2.82C10.4967 3.18034 12.1025 3.54851 13.5673 3.92451L14.57 2.5615C12.9172 2.13067 11.0842 1.69983 9.01617 1.28467C5.82017 0.642333 3.13333 0.242833 0.783333 0C0.509167 0.4935 0.242833 0.994836 0 1.49617C2.92494 1.78298 5.83258 2.22488 8.71066 2.82Z" transform="translate(105.45 50.5767)" fill="#153363"/>
<path opacity="0.5" d="M4.72352 3.72866C9.06339 5.88048 13.6191 7.56623 18.3143 8.75766C19.9515 8.59316 21.526 8.40516 23.0143 8.21716C16.9065 7.05551 10.9851 5.06853 5.41284 2.31083C3.7835 1.5275 2.12285 0.744166 0.211515 0C0.141015 0.532666 0.0783333 1.06533 0 1.56667C1.70767 2.31083 3.22736 3.02366 4.72352 3.72866Z" transform="translate(122.482 81.0954)" fill="#153363"/>
</g>
<path d="M0 0C0 0 4.79401 10.481 9.58801 10.481C14.382 10.481 16.638 0 16.638 0H0Z" transform="translate(128.803 23.5048)" fill="#95D1FE"/>
<path d="M0 0C0 0 2.85917 7.05 5.48333 7.05C8.1075 7.05 9.19632 0 9.19632 0H0Z" transform="translate(132.51 23.5048)" fill="white"/>
<path opacity="0.2" d="M6.26667 24.91H56.4V0C54.52 5.58517 53.9247 15.6196 51.7862 18.5415C49.162 22.1135 45.8093 23.4138 37.0595 22.0351C28.3097 20.6565 22.0508 20.21 11.4053 21.8158C1.927 23.2415 3.572 17.6171 0 11.1233V18.6433C0 20.3053 0.660232 21.8993 1.83546 23.0745C3.01069 24.2498 4.60464 24.91 6.26667 24.91Z" transform="translate(267.119 210.878)" fill="#315CE8"/>
<path d="M0 1.51967C0.0488221 2.97394 0.673357 4.34925 1.7362 5.34306C2.79905 6.33686 4.21313 6.86773 5.6674 6.81891C7.12167 6.77008 8.49699 6.14557 9.49079 5.08273C10.4846 4.01988 11.0155 2.60577 10.9667 1.1515C10.9646 0.76438 10.9226 0.378506 10.8414 0C10.4497 0.705 10.0188 1.41001 9.64283 2.09151C8.44433 4.24568 7.19101 2.92967 4.51201 3.94017C2.15417 4.83317 1.77033 3.28217 0 1.51967Z" transform="translate(284.351 197.82)" fill="#D4EEFF"/>
<path opacity="0.5" d="M1.20562 32.3438C-2.12355 40.3573 2.49811 75.2784 2.49811 75.2784H5.88212C5.09878 71.0405 4.15877 66.411 4.5191 62.1889C5.06743 55.7655 2.4981 44.1722 2.7566 38.5008C3.0151 32.8295 8.09111 20.1708 14.7338 15.9017C21.3764 11.6325 24.3375 6.39984 26.3428 0C26.3349 0 8.26345 15.3847 1.20562 32.3438Z" transform="translate(102.47 23.5048)" fill="#153363"/>
<path opacity="0.5" d="M4.747 41.3757C5.52096 38.4673 5.46124 35.4 4.57466 32.524C2.538 26.696 3.84616 21.15 5.01333 14.8833C6.1805 8.61666 5.01333 4.38667 1.8095 0C3.08633 8.272 2.83567 22.3563 0 40.0205C1.51106 40.6923 3.10901 41.1485 4.747 41.3757Z" transform="translate(121.597 48.5479)" fill="#153363"/>
<path opacity="0.5" d="M30.1348 0L28.1138 0.33684C27.8865 0.775223 27.5873 1.17239 27.2287 1.51184C25.9518 2.53801 25.3487 4.70001 24.5027 8.56184C21.808 10.7552 19.9672 10.5437 16.2072 11.2173C12.4472 11.891 11.3583 9.37651 7.708 6.39984C5.45791 4.5915 2.81969 3.32869 0 2.71034L11.8753 11.5307C12.765 12.1867 13.7826 12.6485 14.8622 12.886C15.9417 13.1235 17.0592 13.1314 18.142 12.9093L23.7272 11.7343C25.4178 7.59573 27.5671 3.6597 30.1348 0Z" transform="translate(153.951 40.3777)" fill="#153363"/>
<path opacity="0.5" d="M0.331711 5.78099L0.848714 6.86199C1.01846 7.20571 1.30834 7.47526 1.66346 7.61962C2.01858 7.76398 2.41429 7.77312 2.77571 7.64533L3.15172 7.51999C2.70522 6.47032 1.74954 5.95333 1.35788 5.37367C0.660709 4.35533 1.04455 3.807 1.90622 2.53016C2.76789 1.25333 3.73139 1.363 5.53306 0L1.74954 1.56667C1.37874 1.74919 1.04771 2.00326 0.775516 2.31426C0.503321 2.62526 0.295346 2.98704 0.16356 3.37876C0.0317743 3.77048 -0.0212106 4.1844 0.00764905 4.59668C0.0365087 5.00896 0.146637 5.41145 0.331711 5.78099Z" transform="translate(99.6826 101.963)" fill="#56B4FC"/>
</svg>
